<svg width="152" height="56" viewBox="0 0 152 56" fill="none" xmlns="http://www.w3.org/2000/svg">
<path d="M25.8333 27.3348L12.9167 17.9893V11.6435L15.5 9.77279L18.0833 11.6435V18.4893H20.6667V10.2485L15.5 6.51519L10.3333 10.2485V19.3682L25.8333 30.5843V27.3348ZM15.5 56L5.16667 48.5253V31.9309L7.75 33.8016V47.1384L15.5 52.7424L23.25 47.1384V40.1878H25.8333V48.5333L15.5 56ZM5.16667 28.6733L18.0833 38.0187V44.3646L15.5 46.2353L12.9167 44.3646V37.5188H10.3333V45.7515L15.5 49.4848L20.6667 45.7515V36.6238L5.16667 25.4157V28.6733ZM2.58333 41.0747L0 39.204V15.1591L28.4167 35.7126V14.9253L31 16.796V40.8409L2.58333 20.2874V41.0747ZM15.5 0L25.8333 7.47473V24.0691L23.25 22.1984V8.86163L15.5 3.2576L7.75 8.86163V15.8122H5.16667V7.47473L15.5 0Z" fill="white"/>
<path d="M73.4473 25.6559C75.4579 25.6559 77.459 25.6559 79.4696 25.6559V27.8141H76.341C76.0404 27.8141 75.7867 28.0499 75.7773 28.34V36.9909H73.4473C73.4473 33.2096 73.4473 29.4373 73.4473 25.6559ZM64.5313 28.3582C64.5313 28.0589 64.785 27.8141 65.095 27.8141C65.9688 27.8141 66.8331 27.8141 67.7069 27.8141C68.0169 27.8141 68.2612 28.0589 68.2612 28.3582C68.2612 30.335 68.2612 32.3118 68.2612 34.2977C68.2612 34.5879 68.0075 34.8418 67.7069 34.8418C66.8331 34.8418 65.9688 34.8418 65.095 34.8418C64.785 34.8418 64.5313 34.597 64.5313 34.2977C64.5313 32.3118 64.5313 30.335 64.5313 28.3582ZM67.9699 25.6559C66.9271 25.6559 65.8748 25.6559 64.8226 25.6559C63.3851 25.6559 62.1919 26.7985 62.1919 28.195C62.1919 30.2806 62.1919 32.3753 62.1919 34.461C62.1919 35.8574 63.3757 37 64.8226 37C65.8748 37 66.9177 37 67.9699 37C69.4168 37 70.6006 35.8574 70.6006 34.461C70.6006 32.3753 70.6006 30.2897 70.6006 28.195C70.6006 26.7985 69.4168 25.6559 67.9699 25.6559ZM87.183 34.8327H83.9229C83.6128 34.8327 83.3592 34.5879 83.3592 34.2977C83.3592 32.3209 83.3592 30.335 83.3592 28.3582C83.3592 28.0589 83.6128 27.8141 83.9229 27.8141H87.183V34.8327ZM87.183 25.6559H83.6504C82.2036 25.6559 81.0198 26.7985 81.0198 28.1859C81.0198 30.2715 81.0198 32.3662 81.0198 34.4519C81.0198 35.8484 82.2036 36.9909 83.6504 36.9909H89.513V19L87.183 20.5778V25.6559ZM94.9903 25.6559V36.9909H92.6603V25.6559H94.9903ZM94.9903 20.4418V23.4977H92.6603V22.0196L94.9903 20.4418ZM103.615 36.9909C102.563 36.9909 101.52 36.9909 100.468 36.9909C99.0208 36.9909 97.8371 35.8484 97.8371 34.4519C97.8371 32.3662 97.8371 30.2806 97.8371 28.1859C97.8371 26.7894 99.0208 25.6468 100.468 25.6468C101.511 25.6468 102.563 25.6468 103.615 25.6468C105.062 25.6468 106.246 26.7894 106.246 28.1859V29.5461H103.916V28.3582C103.916 28.068 103.662 27.8141 103.352 27.8141C102.478 27.8141 101.614 27.8141 100.74 27.8141C100.43 27.8141 100.186 28.0589 100.186 28.3582C100.186 30.335 100.186 32.3118 100.186 34.2977C100.186 34.597 100.44 34.8418 100.74 34.8418C101.614 34.8418 102.478 34.8418 103.352 34.8418C103.662 34.8418 103.916 34.597 103.916 34.2977V33.6811H106.246V34.4519C106.246 35.8484 105.062 36.9909 103.615 36.9909ZM115.584 21.1582V28.1768H119.963C120.273 28.1768 120.517 27.932 120.517 27.6418C120.517 25.665 120.517 23.6882 120.517 21.7023C120.517 21.403 120.263 21.1582 119.963 21.1582H115.584ZM113.245 19C115.575 19 117.896 19 120.226 19C121.673 19 122.856 20.1426 122.856 21.539C122.856 23.6247 122.856 25.7194 122.856 27.805C122.856 29.2015 121.673 30.3441 120.226 30.3441H115.584V37H113.245V19ZM126.746 31.8766C126.746 31.5773 127 31.3416 127.3 31.3416H130.25V34.8418H127.3C126.99 34.8418 126.746 34.597 126.746 34.2977C126.746 33.4816 126.746 32.6836 126.746 31.8766ZM129.959 25.6559H125.449V27.8141H129.696C129.997 27.8141 130.25 28.0589 130.25 28.3582V29.1743H127.047C125.6 29.1743 124.416 30.3169 124.416 31.7133C124.416 32.6292 124.416 33.5451 124.416 34.461C124.416 35.8574 125.6 37 127.047 37H132.59C132.59 34.071 132.59 31.133 132.59 28.204C132.59 26.7985 131.406 25.6559 129.959 25.6559ZM135.436 25.6559C137.447 25.6559 139.448 25.6559 141.459 25.6559V27.8141H138.339C138.039 27.8141 137.785 28.0499 137.776 28.34V36.9909H135.446C135.436 33.2096 135.436 29.4373 135.436 25.6559ZM145.611 19V30.0448L149.041 25.6559H151.84L148.458 29.9904L152 36.9909H149.51L146.955 31.9219L145.621 33.6358V36.9909H143.291V20.5778L145.611 19ZM47 19H49.9595L56.9307 32.8015V19H59.2606V36.9909H56.5548L49.3394 22.6997V36.9909H47V19Z" fill="white"/>
</svg>
