<svg width="263" height="56" viewBox="0 0 263 56" fill="none" xmlns="http://www.w3.org/2000/svg">
<g filter="url(#filter0_d_601_737)">
<path d="M4 0H235C248.255 0 259 10.7452 259 24V24C259 37.2548 248.255 48 235 48H28C14.7452 48 4 37.2548 4 24V0Z" fill="white"/>
</g>
<path d="M68.32 30V28.76C68.6027 28.7867 68.8373 28.7733 69.024 28.72C69.2107 28.6667 69.3627 28.552 69.48 28.376C69.6027 28.2 69.7093 27.944 69.8 27.608C69.8907 27.2667 69.9787 26.824 70.064 26.28C70.176 25.64 70.2693 24.9947 70.344 24.344C70.4187 23.688 70.4827 23.032 70.536 22.376C70.5947 21.7147 70.6427 21.0587 70.68 20.408C70.7173 19.752 70.7493 19.1093 70.776 18.48H78.192V30H76.768V19.832H72.128C72.096 20.3173 72.0613 20.8373 72.024 21.392C71.992 21.9413 71.9493 22.5147 71.896 23.112C71.8427 23.7093 71.7787 24.3253 71.704 24.96C71.6293 25.5947 71.536 26.24 71.424 26.896C71.3333 27.424 71.224 27.9067 71.096 28.344C70.9733 28.7813 70.8 29.1467 70.576 29.44C70.3573 29.7333 70.0667 29.9333 69.704 30.04C69.3467 30.1467 68.8853 30.1333 68.32 30ZM84.1125 30.24C83.2538 30.24 82.5125 30.0453 81.8885 29.656C81.2698 29.2667 80.7925 28.728 80.4565 28.04C80.1205 27.352 79.9525 26.5627 79.9525 25.672C79.9525 24.7653 80.1232 23.9707 80.4645 23.288C80.8058 22.6053 81.2885 22.0747 81.9125 21.696C82.5365 21.312 83.2698 21.12 84.1125 21.12C84.9765 21.12 85.7205 21.3147 86.3445 21.704C86.9685 22.088 87.4458 22.624 87.7765 23.312C88.1125 23.9947 88.2805 24.7813 88.2805 25.672C88.2805 26.5733 88.1125 27.368 87.7765 28.056C87.4405 28.7387 86.9605 29.2747 86.3365 29.664C85.7125 30.048 84.9712 30.24 84.1125 30.24ZM84.1125 28.888C85.0085 28.888 85.6752 28.5893 86.1125 27.992C86.5498 27.3947 86.7685 26.6213 86.7685 25.672C86.7685 24.696 86.5472 23.92 86.1045 23.344C85.6618 22.7627 84.9978 22.472 84.1125 22.472C83.5098 22.472 83.0138 22.608 82.6245 22.88C82.2352 23.152 81.9445 23.528 81.7525 24.008C81.5605 24.488 81.4645 25.0427 81.4645 25.672C81.4645 26.6427 81.6885 27.4213 82.1365 28.008C82.5845 28.5947 83.2432 28.888 84.1125 28.888ZM90.0339 30V21.36H91.2579L94.5379 28.064L97.8179 21.36H99.0419V30H97.6659V24.328L94.9139 30H94.1619L91.4099 24.328V30H90.0339ZM104.956 30.24C104.098 30.24 103.356 30.0453 102.732 29.656C102.114 29.2667 101.636 28.728 101.3 28.04C100.964 27.352 100.796 26.5627 100.796 25.672C100.796 24.7653 100.967 23.9707 101.308 23.288C101.65 22.6053 102.132 22.0747 102.756 21.696C103.38 21.312 104.114 21.12 104.956 21.12C105.82 21.12 106.564 21.3147 107.188 21.704C107.812 22.088 108.29 22.624 108.62 23.312C108.956 23.9947 109.124 24.7813 109.124 25.672C109.124 26.5733 108.956 27.368 108.62 28.056C108.284 28.7387 107.804 29.2747 107.18 29.664C106.556 30.048 105.815 30.24 104.956 30.24ZM104.956 28.888C105.852 28.888 106.519 28.5893 106.956 27.992C107.394 27.3947 107.612 26.6213 107.612 25.672C107.612 24.696 107.391 23.92 106.948 23.344C106.506 22.7627 105.842 22.472 104.956 22.472C104.354 22.472 103.858 22.608 103.468 22.88C103.079 23.152 102.788 23.528 102.596 24.008C102.404 24.488 102.308 25.0427 102.308 25.672C102.308 26.6427 102.532 27.4213 102.98 28.008C103.428 28.5947 104.087 28.888 104.956 28.888ZM110.878 30V21.36H112.302V25H116.846V21.36H118.27V30H116.846V26.352H112.302V30H110.878ZM124.191 30.24C123.332 30.24 122.591 30.0453 121.967 29.656C121.348 29.2667 120.871 28.728 120.535 28.04C120.199 27.352 120.031 26.5627 120.031 25.672C120.031 24.7653 120.201 23.9707 120.543 23.288C120.884 22.6053 121.367 22.0747 121.991 21.696C122.615 21.312 123.348 21.12 124.191 21.12C125.055 21.12 125.799 21.3147 126.423 21.704C127.047 22.088 127.524 22.624 127.855 23.312C128.191 23.9947 128.359 24.7813 128.359 25.672C128.359 26.5733 128.191 27.368 127.855 28.056C127.519 28.7387 127.039 29.2747 126.415 29.664C125.791 30.048 125.049 30.24 124.191 30.24ZM124.191 28.888C125.087 28.888 125.753 28.5893 126.191 27.992C126.628 27.3947 126.847 26.6213 126.847 25.672C126.847 24.696 126.625 23.92 126.183 23.344C125.74 22.7627 125.076 22.472 124.191 22.472C123.588 22.472 123.092 22.608 122.703 22.88C122.313 23.152 122.023 23.528 121.831 24.008C121.639 24.488 121.543 25.0427 121.543 25.672C121.543 26.6427 121.767 27.4213 122.215 28.008C122.663 28.5947 123.321 28.888 124.191 28.888ZM133.76 30.24C132.885 30.24 132.141 30.0453 131.528 29.656C130.92 29.2613 130.456 28.72 130.136 28.032C129.816 27.344 129.651 26.56 129.64 25.68C129.651 24.7787 129.819 23.9867 130.144 23.304C130.475 22.616 130.947 22.08 131.56 21.696C132.173 21.312 132.912 21.12 133.776 21.12C134.688 21.12 135.472 21.344 136.128 21.792C136.789 22.24 137.232 22.8533 137.456 23.632L136.048 24.056C135.867 23.5547 135.571 23.1653 135.16 22.888C134.755 22.6107 134.288 22.472 133.76 22.472C133.168 22.472 132.68 22.6107 132.296 22.888C131.912 23.16 131.627 23.5387 131.44 24.024C131.253 24.504 131.157 25.056 131.152 25.68C131.163 26.64 131.384 27.416 131.816 28.008C132.253 28.5947 132.901 28.888 133.76 28.888C134.325 28.888 134.795 28.76 135.168 28.504C135.541 28.2427 135.824 27.8667 136.016 27.376L137.456 27.752C137.157 28.5573 136.691 29.1733 136.056 29.6C135.421 30.0267 134.656 30.24 133.76 30.24ZM142.534 30.24C141.676 30.24 140.934 30.0453 140.31 29.656C139.692 29.2667 139.214 28.728 138.878 28.04C138.542 27.352 138.374 26.5627 138.374 25.672C138.374 24.7653 138.545 23.9707 138.886 23.288C139.228 22.6053 139.71 22.0747 140.334 21.696C140.958 21.312 141.692 21.12 142.534 21.12C143.398 21.12 144.142 21.3147 144.766 21.704C145.39 22.088 145.868 22.624 146.198 23.312C146.534 23.9947 146.702 24.7813 146.702 25.672C146.702 26.5733 146.534 27.368 146.198 28.056C145.862 28.7387 145.382 29.2747 144.758 29.664C144.134 30.048 143.393 30.24 142.534 30.24ZM142.534 28.888C143.43 28.888 144.097 28.5893 144.534 27.992C144.972 27.3947 145.19 26.6213 145.19 25.672C145.19 24.696 144.969 23.92 144.526 23.344C144.084 22.7627 143.42 22.472 142.534 22.472C141.932 22.472 141.436 22.608 141.046 22.88C140.657 23.152 140.366 23.528 140.174 24.008C139.982 24.488 139.886 25.0427 139.886 25.672C139.886 26.6427 140.11 27.4213 140.558 28.008C141.006 28.5947 141.665 28.888 142.534 28.888ZM148.456 30V21.36H152.136C152.354 21.36 152.589 21.3733 152.84 21.4C153.096 21.4213 153.328 21.4613 153.536 21.52C154 21.6427 154.381 21.896 154.68 22.28C154.984 22.6587 155.136 23.1387 155.136 23.72C155.136 24.0453 155.085 24.328 154.984 24.568C154.888 24.808 154.749 25.016 154.568 25.192C154.488 25.272 154.4 25.344 154.304 25.408C154.208 25.472 154.112 25.5227 154.016 25.56C154.202 25.592 154.392 25.664 154.584 25.776C154.888 25.9413 155.125 26.1733 155.296 26.472C155.472 26.7707 155.56 27.152 155.56 27.616C155.56 28.2027 155.418 28.688 155.136 29.072C154.853 29.4507 154.464 29.712 153.968 29.856C153.76 29.9147 153.53 29.9547 153.28 29.976C153.029 29.992 152.786 30 152.552 30H148.456ZM149.896 28.84H152.472C152.584 28.84 152.717 28.8293 152.872 28.808C153.032 28.7867 153.173 28.76 153.296 28.728C153.573 28.648 153.773 28.4987 153.896 28.28C154.024 28.0613 154.088 27.824 154.088 27.568C154.088 27.2267 153.992 26.9493 153.8 26.736C153.613 26.5227 153.365 26.3893 153.056 26.336C152.944 26.304 152.821 26.2853 152.688 26.28C152.56 26.2747 152.445 26.272 152.344 26.272H149.896V28.84ZM149.896 25.096H152.04C152.189 25.096 152.346 25.088 152.512 25.072C152.677 25.0507 152.821 25.016 152.944 24.968C153.189 24.8773 153.368 24.728 153.48 24.52C153.597 24.3067 153.656 24.0747 153.656 23.824C153.656 23.5467 153.592 23.304 153.464 23.096C153.341 22.8827 153.152 22.736 152.896 22.656C152.725 22.592 152.533 22.5573 152.32 22.552C152.112 22.5413 151.978 22.536 151.92 22.536H149.896V25.096ZM160.807 30.24C159.932 30.24 159.188 30.0453 158.575 29.656C157.967 29.2613 157.503 28.72 157.183 28.032C156.863 27.344 156.698 26.56 156.687 25.68C156.698 24.7787 156.866 23.9867 157.191 23.304C157.522 22.616 157.994 22.08 158.607 21.696C159.22 21.312 159.959 21.12 160.823 21.12C161.735 21.12 162.519 21.344 163.175 21.792C163.836 22.24 164.279 22.8533 164.503 23.632L163.095 24.056C162.914 23.5547 162.618 23.1653 162.207 22.888C161.802 22.6107 161.335 22.472 160.807 22.472C160.215 22.472 159.727 22.6107 159.343 22.888C158.959 23.16 158.674 23.5387 158.487 24.024C158.3 24.504 158.204 25.056 158.199 25.68C158.21 26.64 158.431 27.416 158.863 28.008C159.3 28.5947 159.948 28.888 160.807 28.888C161.372 28.888 161.842 28.76 162.215 28.504C162.588 28.2427 162.871 27.8667 163.063 27.376L164.503 27.752C164.204 28.5573 163.738 29.1733 163.103 29.6C162.468 30.0267 161.703 30.24 160.807 30.24ZM166.128 30L166.136 21.36H167.576V25.52L171.2 21.36H173.048L169.232 25.68L173.496 30H171.504L167.576 25.84V30H166.128ZM176.748 30.24C176.103 30.24 175.561 30.1227 175.124 29.888C174.692 29.648 174.364 29.3333 174.14 28.944C173.921 28.5547 173.812 28.128 173.812 27.664C173.812 27.2107 173.897 26.8187 174.068 26.488C174.244 26.152 174.489 25.8747 174.804 25.656C175.119 25.432 175.495 25.256 175.932 25.128C176.343 25.016 176.801 24.92 177.308 24.84C177.82 24.7547 178.337 24.6773 178.86 24.608C179.383 24.5387 179.871 24.472 180.324 24.408L179.812 24.704C179.828 23.936 179.673 23.368 179.348 23C179.028 22.632 178.473 22.448 177.684 22.448C177.161 22.448 176.703 22.568 176.308 22.808C175.919 23.0427 175.644 23.4267 175.484 23.96L174.132 23.552C174.34 22.7947 174.743 22.2 175.34 21.768C175.937 21.336 176.724 21.12 177.7 21.12C178.484 21.12 179.156 21.2613 179.716 21.544C180.281 21.8213 180.687 22.2427 180.932 22.808C181.055 23.0747 181.132 23.3653 181.164 23.68C181.196 23.9893 181.212 24.3147 181.212 24.656V30H179.948V27.928L180.244 28.12C179.919 28.8187 179.463 29.3467 178.876 29.704C178.295 30.0613 177.585 30.24 176.748 30.24ZM176.964 29.048C177.476 29.048 177.919 28.9573 178.292 28.776C178.671 28.5893 178.975 28.3467 179.204 28.048C179.433 27.744 179.583 27.4133 179.652 27.056C179.732 26.7893 179.775 26.4933 179.78 26.168C179.791 25.8373 179.796 25.584 179.796 25.408L180.292 25.624C179.828 25.688 179.372 25.7493 178.924 25.808C178.476 25.8667 178.052 25.9307 177.652 26C177.252 26.064 176.892 26.1413 176.572 26.232C176.337 26.3067 176.116 26.4027 175.908 26.52C175.705 26.6373 175.54 26.7893 175.412 26.976C175.289 27.1573 175.228 27.384 175.228 27.656C175.228 27.8907 175.287 28.1147 175.404 28.328C175.527 28.5413 175.713 28.7147 175.964 28.848C176.22 28.9813 176.553 29.048 176.964 29.048ZM188.628 30V26.872H186.764C186.545 26.872 186.303 26.864 186.036 26.848C185.775 26.8267 185.529 26.7973 185.3 26.76C184.676 26.6427 184.148 26.368 183.716 25.936C183.289 25.504 183.076 24.9067 183.076 24.144C183.076 23.4027 183.276 22.808 183.676 22.36C184.081 21.9067 184.58 21.6133 185.172 21.48C185.439 21.416 185.708 21.3813 185.98 21.376C186.257 21.3653 186.492 21.36 186.684 21.36H190.052L190.06 30H188.628ZM182.812 30L185.108 26.48H186.644L184.348 30H182.812ZM186.66 25.696H188.628V22.536H186.66C186.537 22.536 186.375 22.5413 186.172 22.552C185.975 22.5627 185.785 22.5947 185.604 22.648C185.433 22.696 185.265 22.784 185.1 22.912C184.94 23.04 184.807 23.2053 184.7 23.408C184.593 23.6107 184.54 23.8507 184.54 24.128C184.54 24.528 184.652 24.8533 184.876 25.104C185.1 25.3493 185.372 25.5147 185.692 25.6C185.868 25.6427 186.041 25.6693 186.212 25.68C186.388 25.6907 186.537 25.696 186.66 25.696ZM195.503 30V21.36H196.879V28.704H199.855V21.36H201.231V28.704H204.199V21.36H205.575V30H195.503ZM207.8 30L207.808 21.36H209.248V25.52L212.872 21.36H214.72L210.904 25.68L215.168 30H213.176L209.248 25.84V30H207.8ZM219.488 30.24C218.629 30.24 217.888 30.0453 217.264 29.656C216.645 29.2667 216.168 28.728 215.832 28.04C215.496 27.352 215.328 26.5627 215.328 25.672C215.328 24.7653 215.498 23.9707 215.84 23.288C216.181 22.6053 216.664 22.0747 217.288 21.696C217.912 21.312 218.645 21.12 219.488 21.12C220.352 21.12 221.096 21.3147 221.72 21.704C222.344 22.088 222.821 22.624 223.152 23.312C223.488 23.9947 223.656 24.7813 223.656 25.672C223.656 26.5733 223.488 27.368 223.152 28.056C222.816 28.7387 222.336 29.2747 221.712 29.664C221.088 30.048 220.346 30.24 219.488 30.24ZM219.488 28.888C220.384 28.888 221.05 28.5893 221.488 27.992C221.925 27.3947 222.144 26.6213 222.144 25.672C222.144 24.696 221.922 23.92 221.48 23.344C221.037 22.7627 220.373 22.472 219.488 22.472C218.885 22.472 218.389 22.608 218 22.88C217.61 23.152 217.32 23.528 217.128 24.008C216.936 24.488 216.84 25.0427 216.84 25.672C216.84 26.6427 217.064 27.4213 217.512 28.008C217.96 28.5947 218.618 28.888 219.488 28.888ZM224.617 30V28.776C224.937 28.8347 225.18 28.824 225.345 28.744C225.516 28.6587 225.641 28.512 225.721 28.304C225.806 28.0907 225.876 27.824 225.929 27.504C226.02 26.9973 226.097 26.432 226.161 25.808C226.23 25.184 226.292 24.5013 226.345 23.76C226.404 23.0133 226.457 22.2133 226.505 21.36H232.545V30H231.121V22.712H227.801C227.769 23.2027 227.729 23.7067 227.681 24.224C227.638 24.7413 227.593 25.2453 227.545 25.736C227.497 26.2213 227.444 26.6747 227.385 27.096C227.332 27.512 227.273 27.872 227.209 28.176C227.108 28.6987 226.966 29.1173 226.785 29.432C226.604 29.7413 226.342 29.9413 226.001 30.032C225.66 30.128 225.198 30.1173 224.617 30ZM237.248 30.24C236.603 30.24 236.061 30.1227 235.624 29.888C235.192 29.648 234.864 29.3333 234.64 28.944C234.421 28.5547 234.312 28.128 234.312 27.664C234.312 27.2107 234.397 26.8187 234.568 26.488C234.744 26.152 234.989 25.8747 235.304 25.656C235.619 25.432 235.995 25.256 236.432 25.128C236.843 25.016 237.301 24.92 237.808 24.84C238.32 24.7547 238.837 24.6773 239.36 24.608C239.883 24.5387 240.371 24.472 240.824 24.408L240.312 24.704C240.328 23.936 240.173 23.368 239.848 23C239.528 22.632 238.973 22.448 238.184 22.448C237.661 22.448 237.203 22.568 236.808 22.808C236.419 23.0427 236.144 23.4267 235.984 23.96L234.632 23.552C234.84 22.7947 235.243 22.2 235.84 21.768C236.437 21.336 237.224 21.12 238.2 21.12C238.984 21.12 239.656 21.2613 240.216 21.544C240.781 21.8213 241.187 22.2427 241.432 22.808C241.555 23.0747 241.632 23.3653 241.664 23.68C241.696 23.9893 241.712 24.3147 241.712 24.656V30H240.448V27.928L240.744 28.12C240.419 28.8187 239.963 29.3467 239.376 29.704C238.795 30.0613 238.085 30.24 237.248 30.24ZM237.464 29.048C237.976 29.048 238.419 28.9573 238.792 28.776C239.171 28.5893 239.475 28.3467 239.704 28.048C239.933 27.744 240.083 27.4133 240.152 27.056C240.232 26.7893 240.275 26.4933 240.28 26.168C240.291 25.8373 240.296 25.584 240.296 25.408L240.792 25.624C240.328 25.688 239.872 25.7493 239.424 25.808C238.976 25.8667 238.552 25.9307 238.152 26C237.752 26.064 237.392 26.1413 237.072 26.232C236.837 26.3067 236.616 26.4027 236.408 26.52C236.205 26.6373 236.04 26.7893 235.912 26.976C235.789 27.1573 235.728 27.384 235.728 27.656C235.728 27.8907 235.787 28.1147 235.904 28.328C236.027 28.5413 236.213 28.7147 236.464 28.848C236.72 28.9813 237.053 29.048 237.464 29.048Z" fill="#0A0A0A"/>
<line x1="56.5" y1="18" x2="56.5" y2="30" stroke="#0A0A0A" stroke-opacity="0.2"/>
<path d="M30.0495 14.53L24.0295 18.46C22.0995 19.72 22.0995 22.54 24.0295 23.8L30.0495 27.73C31.1295 28.44 32.9095 28.44 33.9895 27.73L39.9795 23.8C41.8995 22.54 41.8995 19.73 39.9795 18.47L33.9895 14.54C32.9095 13.82 31.1295 13.82 30.0495 14.53Z" stroke="#0A0A0A" stroke-width="1.5" stroke-linecap="round" stroke-linejoin="round"/>
<path d="M25.6301 25.0801L25.6201 29.7701C25.6201 31.0401 26.6001 32.4001 27.8001 32.8001L30.9901 33.8601C31.5401 34.0401 32.4501 34.0401 33.0101 33.8601L36.2001 32.8001C37.4001 32.4001 38.3801 31.0401 38.3801 29.7701V25.1301" stroke="#0A0A0A" stroke-width="1.5" stroke-linecap="round" stroke-linejoin="round"/>
<path d="M41.4004 27V21" stroke="#0A0A0A" stroke-width="1.5" stroke-linecap="round" stroke-linejoin="round"/>
<defs>
<filter id="filter0_d_601_737" x="0" y="0" width="263" height="56" filterUnits="userSpaceOnUse" color-interpolation-filters="sRGB">
<feFlood flood-opacity="0" result="BackgroundImageFix"/>
<feColorMatrix in="SourceAlpha" type="matrix" values="0 0 0 0 0 0 0 0 0 0 0 0 0 0 0 0 0 0 127 0" result="hardAlpha"/>
<feOffset dy="4"/>
<feGaussianBlur stdDeviation="2"/>
<feComposite in2="hardAlpha" operator="out"/>
<feColorMatrix type="matrix" values="0 0 0 0 0 0 0 0 0 0 0 0 0 0 0 0 0 0 0.25 0"/>
<feBlend mode="normal" in2="BackgroundImageFix" result="effect1_dropShadow_601_737"/>
<feBlend mode="normal" in="SourceGraphic" in2="effect1_dropShadow_601_737" result="shape"/>
</filter>
</defs>
</svg>
