<svg width="220" height="86" viewBox="0 0 220 86" fill="none" xmlns="http://www.w3.org/2000/svg">
<g filter="url(#filter0_d_103_2702)">
<path d="M4 41.3494C4 18.5128 22.5128 0 45.3494 0H177C198.539 0 216 17.4609 216 39V78H40.6506C20.409 78 4 61.591 4 41.3494Z" fill="white"/>
<path d="M106.447 36.6559C108.458 36.6559 110.459 36.6559 112.47 36.6559V38.8141H109.341C109.04 38.8141 108.787 39.0499 108.777 39.34V47.9909H106.447C106.447 44.2096 106.447 40.4373 106.447 36.6559ZM97.5313 39.3582C97.5313 39.0589 97.785 38.8141 98.095 38.8141C98.9688 38.8141 99.8331 38.8141 100.707 38.8141C101.017 38.8141 101.261 39.0589 101.261 39.3582C101.261 41.335 101.261 43.3118 101.261 45.2977C101.261 45.5879 101.008 45.8418 100.707 45.8418C99.8331 45.8418 98.9688 45.8418 98.095 45.8418C97.785 45.8418 97.5313 45.597 97.5313 45.2977C97.5313 43.3118 97.5313 41.335 97.5313 39.3582ZM100.97 36.6559C99.9271 36.6559 98.8748 36.6559 97.8226 36.6559C96.3851 36.6559 95.1919 37.7985 95.1919 39.195C95.1919 41.2806 95.1919 43.3753 95.1919 45.461C95.1919 46.8574 96.3757 48 97.8226 48C98.8748 48 99.9177 48 100.97 48C102.417 48 103.601 46.8574 103.601 45.461C103.601 43.3753 103.601 41.2897 103.601 39.195C103.601 37.7985 102.417 36.6559 100.97 36.6559ZM120.183 45.8327H116.923C116.613 45.8327 116.359 45.5879 116.359 45.2977C116.359 43.3209 116.359 41.335 116.359 39.3582C116.359 39.0589 116.613 38.8141 116.923 38.8141H120.183V45.8327ZM120.183 36.6559H116.65C115.204 36.6559 114.02 37.7985 114.02 39.1859C114.02 41.2715 114.02 43.3662 114.02 45.4519C114.02 46.8484 115.204 47.9909 116.65 47.9909H122.513V30L120.183 31.5778V36.6559ZM127.99 36.6559V47.9909H125.66V36.6559H127.99ZM127.99 31.4418V34.4977H125.66V33.0196L127.99 31.4418ZM136.615 47.9909C135.563 47.9909 134.52 47.9909 133.468 47.9909C132.021 47.9909 130.837 46.8484 130.837 45.4519C130.837 43.3662 130.837 41.2806 130.837 39.1859C130.837 37.7894 132.021 36.6468 133.468 36.6468C134.511 36.6468 135.563 36.6468 136.615 36.6468C138.062 36.6468 139.246 37.7894 139.246 39.1859V40.5461H136.916V39.3582C136.916 39.068 136.662 38.8141 136.352 38.8141C135.478 38.8141 134.614 38.8141 133.74 38.8141C133.43 38.8141 133.186 39.0589 133.186 39.3582C133.186 41.335 133.186 43.3118 133.186 45.2977C133.186 45.597 133.44 45.8418 133.74 45.8418C134.614 45.8418 135.478 45.8418 136.352 45.8418C136.662 45.8418 136.916 45.597 136.916 45.2977V44.6811H139.246V45.4519C139.246 46.8484 138.062 47.9909 136.615 47.9909ZM148.584 32.1582V39.1768H152.963C153.273 39.1768 153.517 38.932 153.517 38.6418C153.517 36.665 153.517 34.6882 153.517 32.7023C153.517 32.403 153.263 32.1582 152.963 32.1582H148.584ZM146.245 30C148.575 30 150.896 30 153.226 30C154.673 30 155.856 31.1426 155.856 32.539C155.856 34.6247 155.856 36.7194 155.856 38.805C155.856 40.2015 154.673 41.3441 153.226 41.3441H148.584V48H146.245V30ZM159.746 42.8766C159.746 42.5773 160 42.3416 160.3 42.3416H163.25V45.8418H160.3C159.99 45.8418 159.746 45.597 159.746 45.2977C159.746 44.4816 159.746 43.6836 159.746 42.8766ZM162.959 36.6559H158.449V38.8141H162.696C162.997 38.8141 163.25 39.0589 163.25 39.3582V40.1743H160.047C158.6 40.1743 157.416 41.3169 157.416 42.7133C157.416 43.6292 157.416 44.5451 157.416 45.461C157.416 46.8574 158.6 48 160.047 48H165.59C165.59 45.071 165.59 42.133 165.59 39.204C165.59 37.7985 164.406 36.6559 162.959 36.6559ZM168.436 36.6559C170.447 36.6559 172.448 36.6559 174.459 36.6559V38.8141H171.339C171.039 38.8141 170.785 39.0499 170.776 39.34V47.9909H168.446C168.436 44.2096 168.436 40.4373 168.436 36.6559ZM178.611 30V41.0448L182.041 36.6559H184.84L181.458 40.9904L185 47.9909H182.51L179.955 42.9219L178.621 44.6358V47.9909H176.291V31.5778L178.611 30ZM80 30H82.9595L89.9307 43.8015V30H92.2606V47.9909H89.5548L82.3394 33.6997V47.9909H80V30Z" fill="#0A0A0A"/>
<path d="M59.1667 38.3823L47.0833 29.7044V23.8118L49.5 22.0747L51.9167 23.8118V30.1686H54.3333V22.5165L49.5 19.0498L44.6667 22.5165V30.9847L59.1667 41.3997V38.3823ZM49.5 65L39.8333 58.0592V42.6501L42.25 44.3872V56.7714L49.5 61.9751L56.75 56.7714V50.3172H59.1667V58.0667L49.5 65ZM39.8333 39.6252L51.9167 48.3031V54.1957L49.5 55.9328L47.0833 54.1957V47.8389H44.6667V55.4835L49.5 58.9502L54.3333 55.4835V47.0078L39.8333 36.6003V39.6252ZM37.4167 51.1408L35 49.4037V27.0763L61.5833 46.1617V26.8592L64 28.5963V50.9237L37.4167 31.8383V51.1408ZM49.5 13L59.1667 19.9408V35.3499L56.75 33.6128V21.2287L49.5 16.0249L42.25 21.2287V27.6828H39.8333V19.9408L49.5 13Z" fill="#0A0A0A"/>
</g>
<defs>
<filter id="filter0_d_103_2702" x="0" y="0" width="220" height="86" filterUnits="userSpaceOnUse" color-interpolation-filters="sRGB">
<feFlood flood-opacity="0" result="BackgroundImageFix"/>
<feColorMatrix in="SourceAlpha" type="matrix" values="0 0 0 0 0 0 0 0 0 0 0 0 0 0 0 0 0 0 127 0" result="hardAlpha"/>
<feOffset dy="4"/>
<feGaussianBlur stdDeviation="2"/>
<feComposite in2="hardAlpha" operator="out"/>
<feColorMatrix type="matrix" values="0 0 0 0 0 0 0 0 0 0 0 0 0 0 0 0 0 0 0.25 0"/>
<feBlend mode="normal" in2="BackgroundImageFix" result="effect1_dropShadow_103_2702"/>
<feBlend mode="normal" in="SourceGraphic" in2="effect1_dropShadow_103_2702" result="shape"/>
</filter>
</defs>
</svg>
