<svg width="268" height="56" viewBox="0 0 268 56" fill="none" xmlns="http://www.w3.org/2000/svg">
<g filter="url(#filter0_d_103_2707)">
<path d="M4 24C4 10.7452 14.7452 0 28 0H240C253.255 0 264 10.7452 264 24C264 37.2548 253.255 48 240 48H4V24Z" fill="white"/>
<path d="M72.088 30V19.832H68.16V18.48H77.44V19.832H73.512V30H72.088ZM87.6498 31.6V30H78.7138V18.48H80.1378V28.704H86.4097V18.64H87.8338V28.704H89.0738V31.6H87.6498ZM99.4215 29.176L96.6375 25.672L99.4215 22.176L100.238 22.816L97.9575 25.672L100.238 28.536L99.4215 29.176ZM96.5015 29.176L93.7175 25.672L96.5015 22.176L97.3175 22.816L95.0375 25.672L97.3175 28.536L96.5015 29.176ZM102.401 30V18.48H103.825V23.888L108.865 18.48H110.657L105.425 24.072L111.065 30H109.225L103.825 24.368V30H102.401ZM114.639 30.24C113.993 30.24 113.452 30.1227 113.015 29.888C112.583 29.648 112.255 29.3333 112.031 28.944C111.812 28.5547 111.703 28.128 111.703 27.664C111.703 27.2107 111.788 26.8187 111.959 26.488C112.135 26.152 112.38 25.8747 112.695 25.656C113.009 25.432 113.385 25.256 113.823 25.128C114.233 25.016 114.692 24.92 115.199 24.84C115.711 24.7547 116.228 24.6773 116.751 24.608C117.273 24.5387 117.761 24.472 118.215 24.408L117.703 24.704C117.719 23.936 117.564 23.368 117.239 23C116.919 22.632 116.364 22.448 115.575 22.448C115.052 22.448 114.593 22.568 114.199 22.808C113.809 23.0427 113.535 23.4267 113.375 23.96L112.023 23.552C112.231 22.7947 112.633 22.2 113.231 21.768C113.828 21.336 114.615 21.12 115.591 21.12C116.375 21.12 117.047 21.2613 117.607 21.544C118.172 21.8213 118.577 22.2427 118.823 22.808C118.945 23.0747 119.023 23.3653 119.055 23.68C119.087 23.9893 119.102 24.3147 119.102 24.656V30H117.839V27.928L118.135 28.12C117.809 28.8187 117.353 29.3467 116.767 29.704C116.185 30.0613 115.476 30.24 114.639 30.24ZM114.855 29.048C115.367 29.048 115.809 28.9573 116.183 28.776C116.561 28.5893 116.865 28.3467 117.095 28.048C117.324 27.744 117.473 27.4133 117.543 27.056C117.623 26.7893 117.665 26.4933 117.671 26.168C117.681 25.8373 117.687 25.584 117.687 25.408L118.183 25.624C117.719 25.688 117.263 25.7493 116.815 25.808C116.367 25.8667 115.943 25.9307 115.543 26C115.143 26.064 114.783 26.1413 114.463 26.232C114.228 26.3067 114.007 26.4027 113.799 26.52C113.596 26.6373 113.431 26.7893 113.303 26.976C113.18 27.1573 113.118 27.384 113.118 27.656C113.118 27.8907 113.177 28.1147 113.295 28.328C113.417 28.5413 113.604 28.7147 113.855 28.848C114.111 28.9813 114.444 29.048 114.855 29.048ZM121.175 30V21.36H122.551V28.704H125.527V21.36H126.903V28.704H129.871V21.36H131.247V30H121.175ZM135.767 30V22.656H132.759V21.36H140.199V22.656H137.191V30H135.767ZM143.889 30.24C143.243 30.24 142.702 30.1227 142.265 29.888C141.833 29.648 141.505 29.3333 141.281 28.944C141.062 28.5547 140.953 28.128 140.953 27.664C140.953 27.2107 141.038 26.8187 141.209 26.488C141.385 26.152 141.63 25.8747 141.945 25.656C142.259 25.432 142.635 25.256 143.073 25.128C143.483 25.016 143.942 24.92 144.449 24.84C144.961 24.7547 145.478 24.6773 146.001 24.608C146.523 24.5387 147.011 24.472 147.465 24.408L146.953 24.704C146.969 23.936 146.814 23.368 146.489 23C146.169 22.632 145.614 22.448 144.825 22.448C144.302 22.448 143.843 22.568 143.449 22.808C143.059 23.0427 142.785 23.4267 142.625 23.96L141.273 23.552C141.481 22.7947 141.883 22.2 142.481 21.768C143.078 21.336 143.865 21.12 144.841 21.12C145.625 21.12 146.297 21.2613 146.857 21.544C147.422 21.8213 147.827 22.2427 148.073 22.808C148.195 23.0747 148.273 23.3653 148.305 23.68C148.337 23.9893 148.352 24.3147 148.352 24.656V30H147.089V27.928L147.385 28.12C147.059 28.8187 146.603 29.3467 146.017 29.704C145.435 30.0613 144.726 30.24 143.889 30.24ZM144.105 29.048C144.617 29.048 145.059 28.9573 145.433 28.776C145.811 28.5893 146.115 28.3467 146.345 28.048C146.574 27.744 146.723 27.4133 146.793 27.056C146.873 26.7893 146.915 26.4933 146.921 26.168C146.931 25.8373 146.937 25.584 146.937 25.408L147.433 25.624C146.969 25.688 146.513 25.7493 146.065 25.808C145.617 25.8667 145.193 25.9307 144.793 26C144.393 26.064 144.033 26.1413 143.713 26.232C143.478 26.3067 143.257 26.4027 143.049 26.52C142.846 26.6373 142.681 26.7893 142.553 26.976C142.43 27.1573 142.368 27.384 142.368 27.656C142.368 27.8907 142.427 28.1147 142.545 28.328C142.667 28.5413 142.854 28.7147 143.105 28.848C143.361 28.9813 143.694 29.048 144.105 29.048ZM150.425 30V21.36H151.849V25H156.393V21.36H157.817V30H156.393V26.352H151.849V30H150.425ZM163.738 30.24C162.879 30.24 162.138 30.0453 161.514 29.656C160.895 29.2667 160.418 28.728 160.082 28.04C159.746 27.352 159.578 26.5627 159.578 25.672C159.578 24.7653 159.748 23.9707 160.09 23.288C160.431 22.6053 160.914 22.0747 161.538 21.696C162.162 21.312 162.895 21.12 163.738 21.12C164.602 21.12 165.346 21.3147 165.97 21.704C166.594 22.088 167.071 22.624 167.402 23.312C167.738 23.9947 167.906 24.7813 167.906 25.672C167.906 26.5733 167.738 27.368 167.402 28.056C167.066 28.7387 166.586 29.2747 165.962 29.664C165.338 30.048 164.596 30.24 163.738 30.24ZM163.738 28.888C164.634 28.888 165.3 28.5893 165.738 27.992C166.175 27.3947 166.394 26.6213 166.394 25.672C166.394 24.696 166.172 23.92 165.73 23.344C165.287 22.7627 164.623 22.472 163.738 22.472C163.135 22.472 162.639 22.608 162.25 22.88C161.86 23.152 161.57 23.528 161.378 24.008C161.186 24.488 161.09 25.0427 161.09 25.672C161.09 26.6427 161.314 27.4213 161.762 28.008C162.21 28.5947 162.868 28.888 163.738 28.888ZM169.659 30V21.36H173.339C173.558 21.36 173.792 21.3733 174.043 21.4C174.299 21.4213 174.531 21.4613 174.739 21.52C175.203 21.6427 175.584 21.896 175.883 22.28C176.187 22.6587 176.339 23.1387 176.339 23.72C176.339 24.0453 176.288 24.328 176.187 24.568C176.091 24.808 175.952 25.016 175.771 25.192C175.691 25.272 175.603 25.344 175.507 25.408C175.411 25.472 175.315 25.5227 175.219 25.56C175.406 25.592 175.595 25.664 175.787 25.776C176.091 25.9413 176.328 26.1733 176.499 26.472C176.675 26.7707 176.763 27.152 176.763 27.616C176.763 28.2027 176.622 28.688 176.339 29.072C176.056 29.4507 175.667 29.712 175.171 29.856C174.963 29.9147 174.734 29.9547 174.483 29.976C174.232 29.992 173.99 30 173.755 30H169.659ZM171.099 28.84H173.675C173.787 28.84 173.92 28.8293 174.075 28.808C174.235 28.7867 174.376 28.76 174.499 28.728C174.776 28.648 174.976 28.4987 175.099 28.28C175.227 28.0613 175.291 27.824 175.291 27.568C175.291 27.2267 175.195 26.9493 175.003 26.736C174.816 26.5227 174.568 26.3893 174.259 26.336C174.147 26.304 174.024 26.2853 173.891 26.28C173.763 26.2747 173.648 26.272 173.547 26.272H171.099V28.84ZM171.099 25.096H173.243C173.392 25.096 173.55 25.088 173.715 25.072C173.88 25.0507 174.024 25.016 174.147 24.968C174.392 24.8773 174.571 24.728 174.683 24.52C174.8 24.3067 174.859 24.0747 174.859 23.824C174.859 23.5467 174.795 23.304 174.667 23.096C174.544 22.8827 174.355 22.736 174.099 22.656C173.928 22.592 173.736 22.5573 173.523 22.552C173.315 22.5413 173.182 22.536 173.123 22.536H171.099V25.096ZM180.826 30.24C180.181 30.24 179.639 30.1227 179.202 29.888C178.77 29.648 178.442 29.3333 178.218 28.944C177.999 28.5547 177.89 28.128 177.89 27.664C177.89 27.2107 177.975 26.8187 178.146 26.488C178.322 26.152 178.567 25.8747 178.882 25.656C179.197 25.432 179.573 25.256 180.01 25.128C180.421 25.016 180.879 24.92 181.386 24.84C181.898 24.7547 182.415 24.6773 182.938 24.608C183.461 24.5387 183.949 24.472 184.402 24.408L183.89 24.704C183.906 23.936 183.751 23.368 183.426 23C183.106 22.632 182.551 22.448 181.762 22.448C181.239 22.448 180.781 22.568 180.386 22.808C179.997 23.0427 179.722 23.4267 179.562 23.96L178.21 23.552C178.418 22.7947 178.821 22.2 179.418 21.768C180.015 21.336 180.802 21.12 181.778 21.12C182.562 21.12 183.234 21.2613 183.794 21.544C184.359 21.8213 184.765 22.2427 185.01 22.808C185.133 23.0747 185.21 23.3653 185.242 23.68C185.274 23.9893 185.29 24.3147 185.29 24.656V30H184.026V27.928L184.322 28.12C183.997 28.8187 183.541 29.3467 182.954 29.704C182.373 30.0613 181.663 30.24 180.826 30.24ZM181.042 29.048C181.554 29.048 181.997 28.9573 182.37 28.776C182.749 28.5893 183.053 28.3467 183.282 28.048C183.511 27.744 183.661 27.4133 183.73 27.056C183.81 26.7893 183.853 26.4933 183.858 26.168C183.869 25.8373 183.874 25.584 183.874 25.408L184.37 25.624C183.906 25.688 183.45 25.7493 183.002 25.808C182.554 25.8667 182.13 25.9307 181.73 26C181.33 26.064 180.97 26.1413 180.65 26.232C180.415 26.3067 180.194 26.4027 179.986 26.52C179.783 26.6373 179.618 26.7893 179.49 26.976C179.367 27.1573 179.306 27.384 179.306 27.656C179.306 27.8907 179.365 28.1147 179.482 28.328C179.605 28.5413 179.791 28.7147 180.042 28.848C180.298 28.9813 180.631 29.048 181.042 29.048ZM192.706 30V26.872H190.842C190.623 26.872 190.381 26.864 190.114 26.848C189.853 26.8267 189.607 26.7973 189.378 26.76C188.754 26.6427 188.226 26.368 187.794 25.936C187.367 25.504 187.154 24.9067 187.154 24.144C187.154 23.4027 187.354 22.808 187.754 22.36C188.159 21.9067 188.658 21.6133 189.25 21.48C189.517 21.416 189.786 21.3813 190.058 21.376C190.335 21.3653 190.57 21.36 190.762 21.36H194.13L194.138 30H192.706ZM186.89 30L189.186 26.48H190.722L188.426 30H186.89ZM190.738 25.696H192.706V22.536H190.738C190.615 22.536 190.453 22.5413 190.25 22.552C190.053 22.5627 189.863 22.5947 189.682 22.648C189.511 22.696 189.343 22.784 189.178 22.912C189.018 23.04 188.885 23.2053 188.778 23.408C188.671 23.6107 188.618 23.8507 188.618 24.128C188.618 24.528 188.73 24.8533 188.954 25.104C189.178 25.3493 189.45 25.5147 189.77 25.6C189.946 25.6427 190.119 25.6693 190.29 25.68C190.466 25.6907 190.615 25.696 190.738 25.696ZM203.557 30.24C202.746 30.24 202.063 30.04 201.509 29.64C200.954 29.2347 200.533 28.688 200.245 28C199.962 27.3067 199.821 26.5307 199.821 25.672C199.821 24.8027 199.962 24.024 200.245 23.336C200.533 22.648 200.954 22.1067 201.509 21.712C202.069 21.3173 202.754 21.12 203.565 21.12C204.365 21.12 205.053 21.32 205.629 21.72C206.21 22.1147 206.655 22.656 206.965 23.344C207.274 24.032 207.429 24.808 207.429 25.672C207.429 26.536 207.274 27.312 206.965 28C206.655 28.688 206.21 29.2347 205.629 29.64C205.053 30.04 204.362 30.24 203.557 30.24ZM199.581 33.84V21.36H200.853V27.72H201.013V33.84H199.581ZM203.381 28.936C203.951 28.936 204.423 28.792 204.797 28.504C205.17 28.216 205.45 27.8267 205.637 27.336C205.823 26.84 205.917 26.2853 205.917 25.672C205.917 25.064 205.823 24.5147 205.637 24.024C205.455 23.5333 205.173 23.144 204.789 22.856C204.41 22.568 203.927 22.424 203.341 22.424C202.781 22.424 202.317 22.5627 201.949 22.84C201.581 23.112 201.306 23.4933 201.125 23.984C200.943 24.4693 200.853 25.032 200.853 25.672C200.853 26.3013 200.941 26.864 201.117 27.36C201.298 27.8507 201.575 28.2373 201.949 28.52C202.322 28.7973 202.799 28.936 203.381 28.936ZM212.863 30.24C212.004 30.24 211.263 30.0453 210.639 29.656C210.02 29.2667 209.543 28.728 209.207 28.04C208.871 27.352 208.703 26.5627 208.703 25.672C208.703 24.7653 208.873 23.9707 209.215 23.288C209.556 22.6053 210.039 22.0747 210.663 21.696C211.287 21.312 212.02 21.12 212.863 21.12C213.727 21.12 214.471 21.3147 215.095 21.704C215.719 22.088 216.196 22.624 216.527 23.312C216.863 23.9947 217.031 24.7813 217.031 25.672C217.031 26.5733 216.863 27.368 216.527 28.056C216.191 28.7387 215.711 29.2747 215.087 29.664C214.463 30.048 213.721 30.24 212.863 30.24ZM212.863 28.888C213.759 28.888 214.425 28.5893 214.863 27.992C215.3 27.3947 215.519 26.6213 215.519 25.672C215.519 24.696 215.297 23.92 214.855 23.344C214.412 22.7627 213.748 22.472 212.863 22.472C212.26 22.472 211.764 22.608 211.375 22.88C210.985 23.152 210.695 23.528 210.503 24.008C210.311 24.488 210.215 25.0427 210.215 25.672C210.215 26.6427 210.439 27.4213 210.887 28.008C211.335 28.5947 211.993 28.888 212.863 28.888ZM228.456 31.6V30H218.784V21.36H220.16V28.704H223.136V21.36H224.512V28.704H227.48V21.36H228.856V28.704H229.88V31.6H228.456ZM233.623 30.24C232.978 30.24 232.436 30.1227 231.999 29.888C231.567 29.648 231.239 29.3333 231.015 28.944C230.796 28.5547 230.687 28.128 230.687 27.664C230.687 27.2107 230.772 26.8187 230.943 26.488C231.119 26.152 231.364 25.8747 231.679 25.656C231.994 25.432 232.37 25.256 232.807 25.128C233.218 25.016 233.676 24.92 234.183 24.84C234.695 24.7547 235.212 24.6773 235.735 24.608C236.258 24.5387 236.746 24.472 237.199 24.408L236.687 24.704C236.703 23.936 236.548 23.368 236.223 23C235.903 22.632 235.348 22.448 234.559 22.448C234.036 22.448 233.578 22.568 233.183 22.808C232.794 23.0427 232.519 23.4267 232.359 23.96L231.007 23.552C231.215 22.7947 231.618 22.2 232.215 21.768C232.812 21.336 233.599 21.12 234.575 21.12C235.359 21.12 236.031 21.2613 236.591 21.544C237.156 21.8213 237.562 22.2427 237.807 22.808C237.93 23.0747 238.007 23.3653 238.039 23.68C238.071 23.9893 238.087 24.3147 238.087 24.656V30H236.823V27.928L237.119 28.12C236.794 28.8187 236.338 29.3467 235.751 29.704C235.17 30.0613 234.46 30.24 233.623 30.24ZM233.839 29.048C234.351 29.048 234.794 28.9573 235.167 28.776C235.546 28.5893 235.85 28.3467 236.079 28.048C236.308 27.744 236.458 27.4133 236.527 27.056C236.607 26.7893 236.65 26.4933 236.655 26.168C236.666 25.8373 236.671 25.584 236.671 25.408L237.167 25.624C236.703 25.688 236.247 25.7493 235.799 25.808C235.351 25.8667 234.927 25.9307 234.527 26C234.127 26.064 233.767 26.1413 233.447 26.232C233.212 26.3067 232.991 26.4027 232.783 26.52C232.58 26.6373 232.415 26.7893 232.287 26.976C232.164 27.1573 232.103 27.384 232.103 27.656C232.103 27.8907 232.162 28.1147 232.279 28.328C232.402 28.5413 232.588 28.7147 232.839 28.848C233.095 28.9813 233.428 29.048 233.839 29.048ZM240.903 29.176L240.087 28.536L242.367 25.672L240.087 22.816L240.903 22.176L243.687 25.672L240.903 29.176ZM243.823 29.176L243.007 28.536L245.287 25.672L243.007 22.816L243.823 22.176L246.607 25.672L243.823 29.176Z" fill="#0A0A0A"/>
<line x1="56.5" y1="18" x2="56.5" y2="30" stroke="#0A0A0A" stroke-opacity="0.2"/>
<path d="M28.4 18.5H35.6C39 18.5 39.34 20.09 39.57 22.03L40.47 29.53C40.76 31.99 40 34 36.5 34H27.51C24 34 23.24 31.99 23.54 29.53L24.44 22.03C24.66 20.09 25 18.5 28.4 18.5Z" stroke="#0A0A0A" stroke-width="1.5" stroke-linecap="round" stroke-linejoin="round"/>
<path d="M28 20V16.5C28 15 29 14 30.5 14H33.5C35 14 36 15 36 16.5V20" stroke="#0A0A0A" stroke-width="1.5" stroke-linecap="round" stroke-linejoin="round"/>
<path d="M40.41 29.03H28" stroke="#0A0A0A" stroke-width="1.5" stroke-linecap="round" stroke-linejoin="round"/>
</g>
<defs>
<filter id="filter0_d_103_2707" x="0" y="0" width="268" height="56" filterUnits="userSpaceOnUse" color-interpolation-filters="sRGB">
<feFlood flood-opacity="0" result="BackgroundImageFix"/>
<feColorMatrix in="SourceAlpha" type="matrix" values="0 0 0 0 0 0 0 0 0 0 0 0 0 0 0 0 0 0 127 0" result="hardAlpha"/>
<feOffset dy="4"/>
<feGaussianBlur stdDeviation="2"/>
<feComposite in2="hardAlpha" operator="out"/>
<feColorMatrix type="matrix" values="0 0 0 0 0 0 0 0 0 0 0 0 0 0 0 0 0 0 0.25 0"/>
<feBlend mode="normal" in2="BackgroundImageFix" result="effect1_dropShadow_103_2707"/>
<feBlend mode="normal" in="SourceGraphic" in2="effect1_dropShadow_103_2707" result="shape"/>
</filter>
</defs>
</svg>
