<svg width="305" height="56" viewBox="0 0 305 56" fill="none" xmlns="http://www.w3.org/2000/svg">
<g filter="url(#filter0_d_601_736)">
<path d="M4 24C4 10.7452 14.7452 0 28 0H277C290.255 0 301 10.7452 301 24V24C301 37.2548 290.255 48 277 48H4V24Z" fill="white"/>
</g>
<path d="M69.12 30V18.48H76.4V19.832H70.544V30H69.12ZM80.0813 30.24C79.2226 30.24 78.4813 30.0453 77.8573 29.656C77.2386 29.2667 76.7613 28.728 76.4253 28.04C76.0893 27.352 75.9213 26.5627 75.9213 25.672C75.9213 24.7653 76.0919 23.9707 76.4333 23.288C76.7746 22.6053 77.2573 22.0747 77.8813 21.696C78.5053 21.312 79.2386 21.12 80.0813 21.12C80.9453 21.12 81.6893 21.3147 82.3133 21.704C82.9373 22.088 83.4146 22.624 83.7453 23.312C84.0813 23.9947 84.2493 24.7813 84.2493 25.672C84.2493 26.5733 84.0813 27.368 83.7453 28.056C83.4093 28.7387 82.9293 29.2747 82.3053 29.664C81.6813 30.048 80.9399 30.24 80.0813 30.24ZM80.0813 28.888C80.9773 28.888 81.6439 28.5893 82.0813 27.992C82.5186 27.3947 82.7373 26.6213 82.7373 25.672C82.7373 24.696 82.5159 23.92 82.0733 23.344C81.6306 22.7627 80.9666 22.472 80.0813 22.472C79.4786 22.472 78.9826 22.608 78.5933 22.88C78.2039 23.152 77.9133 23.528 77.7213 24.008C77.5293 24.488 77.4333 25.0427 77.4333 25.672C77.4333 26.6427 77.6573 27.4213 78.1053 28.008C78.5533 28.5947 79.2119 28.888 80.0813 28.888ZM85.2106 30V28.776C85.5306 28.8347 85.7733 28.824 85.9386 28.744C86.1093 28.6587 86.2346 28.512 86.3146 28.304C86.4 28.0907 86.4693 27.824 86.5226 27.504C86.6133 26.9973 86.6906 26.432 86.7546 25.808C86.824 25.184 86.8853 24.5013 86.9386 23.76C86.9973 23.0133 87.0506 22.2133 87.0986 21.36H93.1386V30H91.7146V22.712H88.3946C88.3626 23.2027 88.3226 23.7067 88.2746 24.224C88.232 24.7413 88.1866 25.2453 88.1386 25.736C88.0906 26.2213 88.0373 26.6747 87.9786 27.096C87.9253 27.512 87.8666 27.872 87.8026 28.176C87.7013 28.6987 87.56 29.1173 87.3786 29.432C87.1973 29.7413 86.936 29.9413 86.5946 30.032C86.2533 30.128 85.792 30.1173 85.2106 30ZM95.3856 30L95.3776 21.36H96.8096V24.488H98.6736C98.9243 24.488 99.1803 24.4933 99.4416 24.504C99.703 24.5147 99.9296 24.5387 100.122 24.576C100.57 24.6613 100.962 24.8107 101.298 25.024C101.634 25.2373 101.895 25.528 102.082 25.896C102.268 26.2587 102.362 26.7093 102.362 27.248C102.362 27.9947 102.167 28.5867 101.778 29.024C101.394 29.456 100.89 29.744 100.266 29.888C100.052 29.936 99.807 29.968 99.5296 29.984C99.2576 29.9947 98.999 30 98.7536 30H95.3856ZM96.8096 28.824H98.7776C98.9376 28.824 99.1163 28.8187 99.3136 28.808C99.511 28.7973 99.687 28.7707 99.8416 28.728C100.114 28.648 100.356 28.4907 100.57 28.256C100.788 28.0213 100.898 27.6853 100.898 27.248C100.898 26.8053 100.791 26.464 100.578 26.224C100.37 25.984 100.095 25.8267 99.7536 25.752C99.599 25.7147 99.4363 25.6907 99.2656 25.68C99.095 25.6693 98.9323 25.664 98.7776 25.664H96.8096V28.824ZM108.2 33.6V30.16C107.357 30.2933 106.589 30.2027 105.896 29.888C105.208 29.568 104.659 29.0533 104.248 28.344C103.843 27.6293 103.64 26.744 103.64 25.688C103.64 24.6267 103.843 23.7387 104.248 23.024C104.659 22.3093 105.208 21.7947 105.896 21.48C106.589 21.16 107.357 21.0667 108.2 21.2V18.568H109.496V21.2C110.339 21.0667 111.104 21.16 111.792 21.48C112.485 21.7947 113.035 22.3093 113.44 23.024C113.851 23.7387 114.056 24.6267 114.056 25.688C114.056 26.744 113.851 27.6293 113.44 28.344C113.035 29.0533 112.485 29.568 111.792 29.888C111.104 30.2027 110.339 30.2933 109.496 30.16V33.6H108.2ZM108.2 28.856V22.512C107.768 22.4373 107.365 22.4507 106.992 22.552C106.619 22.648 106.291 22.8293 106.008 23.096C105.725 23.3627 105.504 23.712 105.344 24.144C105.184 24.576 105.104 25.0907 105.104 25.688C105.104 26.28 105.184 26.792 105.344 27.224C105.509 27.656 105.733 28.0053 106.016 28.272C106.304 28.5333 106.635 28.7147 107.008 28.816C107.381 28.912 107.779 28.9253 108.2 28.856ZM109.496 28.856C109.917 28.9253 110.315 28.912 110.688 28.816C111.061 28.72 111.392 28.5413 111.68 28.28C111.968 28.0133 112.192 27.664 112.352 27.232C112.512 26.8 112.592 26.2853 112.592 25.688C112.592 25.0853 112.512 24.568 112.352 24.136C112.197 23.704 111.979 23.3547 111.696 23.088C111.413 22.8213 111.083 22.64 110.704 22.544C110.331 22.448 109.928 22.4373 109.496 22.512V28.856ZM126.098 21.36V30H124.722V23.632L120.194 30H119.018V21.36H120.394V27.64L124.93 21.36H126.098ZM136.878 30V26.872H135.014C134.795 26.872 134.553 26.864 134.286 26.848C134.025 26.8267 133.779 26.7973 133.55 26.76C132.926 26.6427 132.398 26.368 131.966 25.936C131.539 25.504 131.326 24.9067 131.326 24.144C131.326 23.4027 131.526 22.808 131.926 22.36C132.331 21.9067 132.83 21.6133 133.422 21.48C133.689 21.416 133.958 21.3813 134.23 21.376C134.507 21.3653 134.742 21.36 134.934 21.36H138.302L138.31 30H136.878ZM131.062 30L133.358 26.48H134.894L132.598 30H131.062ZM134.91 25.696H136.878V22.536H134.91C134.787 22.536 134.625 22.5413 134.422 22.552C134.225 22.5627 134.035 22.5947 133.854 22.648C133.683 22.696 133.515 22.784 133.35 22.912C133.19 23.04 133.057 23.2053 132.95 23.408C132.843 23.6107 132.79 23.8507 132.79 24.128C132.79 24.528 132.902 24.8533 133.126 25.104C133.35 25.3493 133.622 25.5147 133.942 25.6C134.118 25.6427 134.291 25.6693 134.462 25.68C134.638 25.6907 134.787 25.696 134.91 25.696ZM139.598 30L142.902 25.632L139.67 21.36H141.366L143.734 24.528L146.078 21.36H147.774L144.542 25.632L147.854 30H146.15L143.734 26.736L141.302 30H139.598ZM151.424 30V22.656H148.416V21.36H155.856V22.656H152.848V30H151.424ZM157.21 25.544V24.368H162.01V25.544H157.21ZM164.081 30L164.089 21.36H165.529V25.52L169.153 21.36H171.001L167.185 25.68L171.449 30H169.457L165.529 25.84V30H164.081ZM171.289 30V28.776C171.609 28.8347 171.851 28.824 172.017 28.744C172.187 28.6587 172.313 28.512 172.393 28.304C172.478 28.0907 172.547 27.824 172.601 27.504C172.691 26.9973 172.769 26.432 172.833 25.808C172.902 25.184 172.963 24.5013 173.017 23.76C173.075 23.0133 173.129 22.2133 173.177 21.36H179.217V30H177.793V22.712H174.473C174.441 23.2027 174.401 23.7067 174.353 24.224C174.31 24.7413 174.265 25.2453 174.217 25.736C174.169 26.2213 174.115 26.6747 174.057 27.096C174.003 27.512 173.945 27.872 173.881 28.176C173.779 28.6987 173.638 29.1173 173.457 29.432C173.275 29.7413 173.014 29.9413 172.673 30.032C172.331 30.128 171.87 30.1173 171.289 30ZM182.664 33.84L184.336 29.296L184.36 30.64L180.584 21.36H182.08L185.04 28.824H184.528L187.304 21.36H188.752L184.048 33.84H182.664ZM193.585 30.248C192.769 30.2427 192.073 30.0667 191.497 29.72C190.921 29.368 190.473 28.8533 190.153 28.176C189.833 27.4987 189.654 26.6693 189.617 25.688C189.596 25.2347 189.601 24.736 189.633 24.192C189.67 23.648 189.729 23.1253 189.809 22.624C189.894 22.1227 190.001 21.7093 190.129 21.384C190.273 20.9947 190.476 20.6347 190.737 20.304C191.004 19.968 191.302 19.6907 191.633 19.472C191.969 19.2427 192.345 19.064 192.761 18.936C193.177 18.808 193.612 18.7093 194.065 18.64C194.524 18.5653 194.982 18.5013 195.441 18.448C195.9 18.3893 196.337 18.32 196.753 18.24L196.897 19.52C196.604 19.584 196.257 19.64 195.857 19.688C195.457 19.7307 195.041 19.7813 194.609 19.84C194.182 19.8987 193.772 19.9813 193.377 20.088C192.988 20.1893 192.652 20.3307 192.369 20.512C191.953 20.7627 191.633 21.1387 191.409 21.64C191.19 22.136 191.057 22.6933 191.009 23.312C191.34 22.8 191.769 22.424 192.297 22.184C192.825 21.944 193.388 21.824 193.985 21.824C194.758 21.824 195.425 22.0053 195.985 22.368C196.545 22.7253 196.974 23.2187 197.273 23.848C197.577 24.4773 197.729 25.1947 197.729 26C197.729 26.8533 197.558 27.6 197.217 28.24C196.876 28.88 196.393 29.376 195.769 29.728C195.15 30.08 194.422 30.2533 193.585 30.248ZM193.673 28.896C194.51 28.896 195.145 28.6373 195.577 28.12C196.009 27.5973 196.225 26.904 196.225 26.04C196.225 25.1547 196.001 24.4587 195.553 23.952C195.105 23.44 194.476 23.184 193.665 23.184C192.844 23.184 192.214 23.44 191.777 23.952C191.345 24.4587 191.129 25.1547 191.129 26.04C191.129 26.9307 191.348 27.6293 191.785 28.136C192.222 28.6427 192.852 28.896 193.673 28.896ZM208.562 29.176L205.778 25.672L208.562 22.176L209.378 22.816L207.098 25.672L209.378 28.536L208.562 29.176ZM205.642 29.176L202.858 25.672L205.642 22.176L206.458 22.816L204.178 25.672L206.458 28.536L205.642 29.176ZM211.542 30V18.48H220.534V30H219.11V19.832H212.966V30H211.542ZM226.52 30.24C225.672 30.24 224.931 30.0533 224.296 29.68C223.667 29.3013 223.176 28.776 222.824 28.104C222.472 27.4267 222.296 26.6373 222.296 25.736C222.296 24.792 222.47 23.976 222.816 23.288C223.163 22.5947 223.646 22.0613 224.264 21.688C224.888 21.3093 225.619 21.12 226.456 21.12C227.326 21.12 228.064 21.32 228.672 21.72C229.286 22.12 229.744 22.6907 230.048 23.432C230.358 24.1733 230.491 25.056 230.448 26.08H229.008V25.568C228.992 24.5067 228.776 23.7147 228.36 23.192C227.944 22.664 227.326 22.4 226.504 22.4C225.624 22.4 224.955 22.6827 224.496 23.248C224.038 23.8133 223.808 24.624 223.808 25.68C223.808 26.6987 224.038 27.488 224.496 28.048C224.955 28.608 225.608 28.888 226.456 28.888C227.027 28.888 227.523 28.7573 227.944 28.496C228.366 28.2347 228.696 27.8587 228.936 27.368L230.304 27.84C229.968 28.6027 229.462 29.1947 228.784 29.616C228.112 30.032 227.358 30.24 226.52 30.24ZM223.328 26.08V24.936H229.712V26.08H223.328ZM235.869 30.24C234.995 30.24 234.251 30.0453 233.637 29.656C233.029 29.2613 232.565 28.72 232.245 28.032C231.925 27.344 231.76 26.56 231.749 25.68C231.76 24.7787 231.928 23.9867 232.253 23.304C232.584 22.616 233.056 22.08 233.669 21.696C234.283 21.312 235.021 21.12 235.885 21.12C236.797 21.12 237.581 21.344 238.237 21.792C238.899 22.24 239.341 22.8533 239.565 23.632L238.157 24.056C237.976 23.5547 237.68 23.1653 237.269 22.888C236.864 22.6107 236.397 22.472 235.869 22.472C235.277 22.472 234.789 22.6107 234.405 22.888C234.021 23.16 233.736 23.5387 233.549 24.024C233.363 24.504 233.267 25.056 233.261 25.68C233.272 26.64 233.493 27.416 233.925 28.008C234.363 28.5947 235.011 28.888 235.869 28.888C236.435 28.888 236.904 28.76 237.277 28.504C237.651 28.2427 237.933 27.8667 238.125 27.376L239.565 27.752C239.267 28.5573 238.8 29.1733 238.165 29.6C237.531 30.0267 236.765 30.24 235.869 30.24ZM243.33 30V22.656H240.322V21.36H247.762V22.656H244.754V30H243.33ZM252.8 30.24C251.941 30.24 251.2 30.0453 250.576 29.656C249.957 29.2667 249.48 28.728 249.144 28.04C248.808 27.352 248.64 26.5627 248.64 25.672C248.64 24.7653 248.811 23.9707 249.152 23.288C249.493 22.6053 249.976 22.0747 250.6 21.696C251.224 21.312 251.957 21.12 252.8 21.12C253.664 21.12 254.408 21.3147 255.032 21.704C255.656 22.088 256.133 22.624 256.464 23.312C256.8 23.9947 256.968 24.7813 256.968 25.672C256.968 26.5733 256.8 27.368 256.464 28.056C256.128 28.7387 255.648 29.2747 255.024 29.664C254.4 30.048 253.659 30.24 252.8 30.24ZM252.8 28.888C253.696 28.888 254.363 28.5893 254.8 27.992C255.237 27.3947 255.456 26.6213 255.456 25.672C255.456 24.696 255.235 23.92 254.792 23.344C254.349 22.7627 253.685 22.472 252.8 22.472C252.197 22.472 251.701 22.608 251.312 22.88C250.923 23.152 250.632 23.528 250.44 24.008C250.248 24.488 250.152 25.0427 250.152 25.672C250.152 26.6427 250.376 27.4213 250.824 28.008C251.272 28.5947 251.931 28.888 252.8 28.888ZM258.721 30V21.36H262.401C262.62 21.36 262.855 21.3733 263.105 21.4C263.361 21.4213 263.593 21.4613 263.801 21.52C264.265 21.6427 264.647 21.896 264.945 22.28C265.249 22.6587 265.401 23.1387 265.401 23.72C265.401 24.0453 265.351 24.328 265.249 24.568C265.153 24.808 265.015 25.016 264.833 25.192C264.753 25.272 264.665 25.344 264.569 25.408C264.473 25.472 264.377 25.5227 264.281 25.56C264.468 25.592 264.657 25.664 264.849 25.776C265.153 25.9413 265.391 26.1733 265.561 26.472C265.737 26.7707 265.825 27.152 265.825 27.616C265.825 28.2027 265.684 28.688 265.401 29.072C265.119 29.4507 264.729 29.712 264.233 29.856C264.025 29.9147 263.796 29.9547 263.545 29.976C263.295 29.992 263.052 30 262.817 30H258.721ZM260.161 28.84H262.737C262.849 28.84 262.983 28.8293 263.137 28.808C263.297 28.7867 263.439 28.76 263.561 28.728C263.839 28.648 264.039 28.4987 264.161 28.28C264.289 28.0613 264.353 27.824 264.353 27.568C264.353 27.2267 264.257 26.9493 264.065 26.736C263.879 26.5227 263.631 26.3893 263.321 26.336C263.209 26.304 263.087 26.2853 262.953 26.28C262.825 26.2747 262.711 26.272 262.609 26.272H260.161V28.84ZM260.161 25.096H262.305C262.455 25.096 262.612 25.088 262.777 25.072C262.943 25.0507 263.087 25.016 263.209 24.968C263.455 24.8773 263.633 24.728 263.745 24.52C263.863 24.3067 263.921 24.0747 263.921 23.824C263.921 23.5467 263.857 23.304 263.729 23.096C263.607 22.8827 263.417 22.736 263.161 22.656C262.991 22.592 262.799 22.5573 262.585 22.552C262.377 22.5413 262.244 22.536 262.185 22.536H260.161V25.096ZM271.113 30.24C270.254 30.24 269.513 30.0453 268.889 29.656C268.27 29.2667 267.793 28.728 267.457 28.04C267.121 27.352 266.953 26.5627 266.953 25.672C266.953 24.7653 267.123 23.9707 267.465 23.288C267.806 22.6053 268.289 22.0747 268.913 21.696C269.537 21.312 270.27 21.12 271.113 21.12C271.977 21.12 272.721 21.3147 273.345 21.704C273.969 22.088 274.446 22.624 274.777 23.312C275.113 23.9947 275.281 24.7813 275.281 25.672C275.281 26.5733 275.113 27.368 274.777 28.056C274.441 28.7387 273.961 29.2747 273.337 29.664C272.713 30.048 271.971 30.24 271.113 30.24ZM271.113 28.888C272.009 28.888 272.675 28.5893 273.113 27.992C273.55 27.3947 273.769 26.6213 273.769 25.672C273.769 24.696 273.547 23.92 273.105 23.344C272.662 22.7627 271.998 22.472 271.113 22.472C270.51 22.472 270.014 22.608 269.625 22.88C269.235 23.152 268.945 23.528 268.753 24.008C268.561 24.488 268.465 25.0427 268.465 25.672C268.465 26.6427 268.689 27.4213 269.137 28.008C269.585 28.5947 270.243 28.888 271.113 28.888ZM277.778 29.176L276.962 28.536L279.242 25.672L276.962 22.816L277.778 22.176L280.562 25.672L277.778 29.176ZM280.698 29.176L279.882 28.536L282.162 25.672L279.882 22.816L280.698 22.176L283.482 25.672L280.698 29.176Z" fill="#0A0A0A"/>
<line x1="56.5" y1="18" x2="56.5" y2="30" stroke="#0A0A0A" stroke-opacity="0.2"/>
<path d="M37.498 16.5C34.898 21.05 30.89 23.9499 25.67 23.4799L22.5 23.1899" stroke="#0A0A0A" stroke-width="1.5" stroke-miterlimit="10" stroke-linecap="round" stroke-linejoin="round"/>
<path d="M24.3135 19.1851C28.8635 21.7851 32.2635 24.7951 31.7935 30.0151L31.5035 33.1851" stroke="#0A0A0A" stroke-width="1.5" stroke-miterlimit="10" stroke-linecap="round" stroke-linejoin="round"/>
<path d="M25.5 31.37C28.1 26.82 33.11 24.21 38.33 24.68L41.5 24.97" stroke="#0A0A0A" stroke-width="1.5" stroke-miterlimit="10" stroke-linecap="round" stroke-linejoin="round"/>
<path d="M39.6828 30.1851C35.1328 27.5851 32.5228 22.5751 32.9928 17.3551L33.2828 14.1851" stroke="#0A0A0A" stroke-width="1.5" stroke-miterlimit="10" stroke-linecap="round" stroke-linejoin="round"/>
<path d="M32 34C37.5228 34 42 29.5228 42 24C42 18.4772 37.5228 14 32 14C26.4772 14 22 18.4772 22 24C22 29.5228 26.4772 34 32 34Z" stroke="#0A0A0A" stroke-width="1.5" stroke-miterlimit="10" stroke-linecap="round" stroke-linejoin="round"/>
<defs>
<filter id="filter0_d_601_736" x="0" y="0" width="305" height="56" filterUnits="userSpaceOnUse" color-interpolation-filters="sRGB">
<feFlood flood-opacity="0" result="BackgroundImageFix"/>
<feColorMatrix in="SourceAlpha" type="matrix" values="0 0 0 0 0 0 0 0 0 0 0 0 0 0 0 0 0 0 127 0" result="hardAlpha"/>
<feOffset dy="4"/>
<feGaussianBlur stdDeviation="2"/>
<feComposite in2="hardAlpha" operator="out"/>
<feColorMatrix type="matrix" values="0 0 0 0 0 0 0 0 0 0 0 0 0 0 0 0 0 0 0.25 0"/>
<feBlend mode="normal" in2="BackgroundImageFix" result="effect1_dropShadow_601_736"/>
<feBlend mode="normal" in="SourceGraphic" in2="effect1_dropShadow_601_736" result="shape"/>
</filter>
</defs>
</svg>
