<svg width="219" height="56" viewBox="0 0 219 56" fill="none" xmlns="http://www.w3.org/2000/svg">
<g filter="url(#filter0_d_103_2716)">
<path d="M4 24C4 10.7452 14.7452 0 28 0H191C204.255 0 215 10.7452 215 24C215 37.2548 204.255 48 191 48H4V24Z" fill="white"/>
<path d="M78.008 30H76.568V20.992L70.56 30H69.12V18.48H70.56V27.48L76.568 18.48H78.008V30ZM80.237 30L80.245 21.36H81.685V25.52L85.309 21.36H87.157L83.341 25.68L87.605 30H85.613L81.685 25.84V30H80.237ZM88.3933 30V21.36H89.7693V28.704H92.7453V21.36H94.1213V28.704H97.0893V21.36H98.4653V30H88.3933ZM103.154 30.24C102.509 30.24 101.967 30.1227 101.53 29.888C101.098 29.648 100.77 29.3333 100.546 28.944C100.327 28.5547 100.218 28.128 100.218 27.664C100.218 27.2107 100.303 26.8187 100.474 26.488C100.65 26.152 100.895 25.8747 101.21 25.656C101.525 25.432 101.901 25.256 102.338 25.128C102.749 25.016 103.207 24.92 103.714 24.84C104.226 24.7547 104.743 24.6773 105.266 24.608C105.789 24.5387 106.277 24.472 106.73 24.408L106.218 24.704C106.234 23.936 106.079 23.368 105.754 23C105.434 22.632 104.879 22.448 104.09 22.448C103.567 22.448 103.109 22.568 102.714 22.808C102.325 23.0427 102.05 23.4267 101.89 23.96L100.538 23.552C100.746 22.7947 101.149 22.2 101.746 21.768C102.343 21.336 103.13 21.12 104.106 21.12C104.89 21.12 105.562 21.2613 106.122 21.544C106.687 21.8213 107.093 22.2427 107.338 22.808C107.461 23.0747 107.538 23.3653 107.57 23.68C107.602 23.9893 107.618 24.3147 107.618 24.656V30H106.354V27.928L106.65 28.12C106.325 28.8187 105.869 29.3467 105.282 29.704C104.701 30.0613 103.991 30.24 103.154 30.24ZM103.37 29.048C103.882 29.048 104.325 28.9573 104.698 28.776C105.077 28.5893 105.381 28.3467 105.61 28.048C105.839 27.744 105.989 27.4133 106.058 27.056C106.138 26.7893 106.181 26.4933 106.186 26.168C106.197 25.8373 106.202 25.584 106.202 25.408L106.698 25.624C106.234 25.688 105.778 25.7493 105.33 25.808C104.882 25.8667 104.458 25.9307 104.058 26C103.658 26.064 103.298 26.1413 102.978 26.232C102.743 26.3067 102.522 26.4027 102.314 26.52C102.111 26.6373 101.946 26.7893 101.818 26.976C101.695 27.1573 101.634 27.384 101.634 27.656C101.634 27.8907 101.693 28.1147 101.81 28.328C101.933 28.5413 102.119 28.7147 102.37 28.848C102.626 28.9813 102.959 29.048 103.37 29.048ZM112.901 30V18.48H117.453C117.565 18.48 117.699 18.4853 117.853 18.496C118.008 18.5013 118.157 18.5173 118.301 18.544C118.925 18.64 119.448 18.8533 119.869 19.184C120.296 19.5147 120.616 19.9333 120.829 20.44C121.043 20.9413 121.149 21.4987 121.149 22.112C121.149 22.72 121.04 23.2773 120.821 23.784C120.608 24.2853 120.288 24.704 119.861 25.04C119.44 25.3707 118.92 25.584 118.301 25.68C118.157 25.7013 118.008 25.7173 117.853 25.728C117.699 25.7387 117.565 25.744 117.453 25.744H114.325V30H112.901ZM114.325 24.392H117.405C117.507 24.392 117.621 24.3867 117.749 24.376C117.883 24.3653 118.008 24.3467 118.125 24.32C118.493 24.2347 118.792 24.08 119.021 23.856C119.256 23.6267 119.427 23.36 119.533 23.056C119.64 22.7467 119.693 22.432 119.693 22.112C119.693 21.792 119.64 21.48 119.533 21.176C119.427 20.8667 119.256 20.5973 119.021 20.368C118.792 20.1387 118.493 19.984 118.125 19.904C118.008 19.872 117.883 19.8533 117.749 19.848C117.621 19.8373 117.507 19.832 117.405 19.832H114.325V24.392ZM129.817 21.36V30H128.441V23.632L123.913 30H122.737V21.36H124.113V27.64L128.649 21.36H129.817ZM132.05 30V21.36H135.73C135.948 21.36 136.183 21.3733 136.434 21.4C136.69 21.4213 136.922 21.4613 137.13 21.52C137.594 21.6427 137.975 21.896 138.274 22.28C138.578 22.6587 138.73 23.1387 138.73 23.72C138.73 24.0453 138.679 24.328 138.578 24.568C138.482 24.808 138.343 25.016 138.162 25.192C138.082 25.272 137.994 25.344 137.898 25.408C137.802 25.472 137.706 25.5227 137.61 25.56C137.796 25.592 137.986 25.664 138.178 25.776C138.482 25.9413 138.719 26.1733 138.89 26.472C139.066 26.7707 139.154 27.152 139.154 27.616C139.154 28.2027 139.012 28.688 138.73 29.072C138.447 29.4507 138.058 29.712 137.562 29.856C137.354 29.9147 137.124 29.9547 136.874 29.976C136.623 29.992 136.38 30 136.146 30H132.05ZM133.49 28.84H136.066C136.178 28.84 136.311 28.8293 136.466 28.808C136.626 28.7867 136.767 28.76 136.89 28.728C137.167 28.648 137.367 28.4987 137.49 28.28C137.618 28.0613 137.682 27.824 137.682 27.568C137.682 27.2267 137.586 26.9493 137.394 26.736C137.207 26.5227 136.959 26.3893 136.65 26.336C136.538 26.304 136.415 26.2853 136.282 26.28C136.154 26.2747 136.039 26.272 135.938 26.272H133.49V28.84ZM133.49 25.096H135.634C135.783 25.096 135.94 25.088 136.106 25.072C136.271 25.0507 136.415 25.016 136.538 24.968C136.783 24.8773 136.962 24.728 137.074 24.52C137.191 24.3067 137.25 24.0747 137.25 23.824C137.25 23.5467 137.186 23.304 137.058 23.096C136.935 22.8827 136.746 22.736 136.49 22.656C136.319 22.592 136.127 22.5573 135.914 22.552C135.706 22.5413 135.572 22.536 135.514 22.536H133.49V25.096ZM144.505 30.24C143.657 30.24 142.915 30.0533 142.281 29.68C141.651 29.3013 141.161 28.776 140.809 28.104C140.457 27.4267 140.281 26.6373 140.281 25.736C140.281 24.792 140.454 23.976 140.801 23.288C141.147 22.5947 141.63 22.0613 142.249 21.688C142.873 21.3093 143.603 21.12 144.441 21.12C145.31 21.12 146.049 21.32 146.657 21.72C147.27 22.12 147.729 22.6907 148.033 23.432C148.342 24.1733 148.475 25.056 148.433 26.08H146.993V25.568C146.977 24.5067 146.761 23.7147 146.345 23.192C145.929 22.664 145.31 22.4 144.489 22.4C143.609 22.4 142.939 22.6827 142.481 23.248C142.022 23.8133 141.793 24.624 141.793 25.68C141.793 26.6987 142.022 27.488 142.481 28.048C142.939 28.608 143.593 28.888 144.441 28.888C145.011 28.888 145.507 28.7573 145.929 28.496C146.35 28.2347 146.681 27.8587 146.921 27.368L148.289 27.84C147.953 28.6027 147.446 29.1947 146.769 29.616C146.097 30.032 145.342 30.24 144.505 30.24ZM141.313 26.08V24.936H147.697V26.08H141.313ZM154.182 30.24C153.371 30.24 152.688 30.04 152.134 29.64C151.579 29.2347 151.158 28.688 150.87 28C150.587 27.3067 150.446 26.5307 150.446 25.672C150.446 24.8027 150.587 24.024 150.87 23.336C151.158 22.648 151.579 22.1067 152.134 21.712C152.694 21.3173 153.379 21.12 154.19 21.12C154.99 21.12 155.678 21.32 156.254 21.72C156.835 22.1147 157.28 22.656 157.59 23.344C157.899 24.032 158.054 24.808 158.054 25.672C158.054 26.536 157.899 27.312 157.59 28C157.28 28.688 156.835 29.2347 156.254 29.64C155.678 30.04 154.987 30.24 154.182 30.24ZM150.206 33.84V21.36H151.478V27.72H151.638V33.84H150.206ZM154.006 28.936C154.576 28.936 155.048 28.792 155.422 28.504C155.795 28.216 156.075 27.8267 156.262 27.336C156.448 26.84 156.542 26.2853 156.542 25.672C156.542 25.064 156.448 24.5147 156.262 24.024C156.08 23.5333 155.798 23.144 155.414 22.856C155.035 22.568 154.552 22.424 153.966 22.424C153.406 22.424 152.942 22.5627 152.574 22.84C152.206 23.112 151.931 23.4933 151.75 23.984C151.568 24.4693 151.478 25.032 151.478 25.672C151.478 26.3013 151.566 26.864 151.742 27.36C151.923 27.8507 152.2 28.2373 152.574 28.52C152.947 28.7973 153.424 28.936 154.006 28.936ZM163.011 30V18.48H164.435V23.888L169.475 18.48H171.267L166.035 24.072L171.675 30H169.835L164.435 24.368V30H163.011ZM171.351 30V28.776C171.671 28.8347 171.914 28.824 172.079 28.744C172.25 28.6587 172.375 28.512 172.455 28.304C172.541 28.0907 172.61 27.824 172.663 27.504C172.754 26.9973 172.831 26.432 172.895 25.808C172.965 25.184 173.026 24.5013 173.079 23.76C173.138 23.0133 173.191 22.2133 173.239 21.36H179.279V30H177.855V22.712H174.535C174.503 23.2027 174.463 23.7067 174.415 24.224C174.373 24.7413 174.327 25.2453 174.279 25.736C174.231 26.2213 174.178 26.6747 174.119 27.096C174.066 27.512 174.007 27.872 173.943 28.176C173.842 28.6987 173.701 29.1173 173.519 29.432C173.338 29.7413 173.077 29.9413 172.735 30.032C172.394 30.128 171.933 30.1173 171.351 30ZM183.982 30.24C183.337 30.24 182.796 30.1227 182.358 29.888C181.926 29.648 181.598 29.3333 181.374 28.944C181.156 28.5547 181.046 28.128 181.046 27.664C181.046 27.2107 181.132 26.8187 181.302 26.488C181.478 26.152 181.724 25.8747 182.038 25.656C182.353 25.432 182.729 25.256 183.166 25.128C183.577 25.016 184.036 24.92 184.542 24.84C185.054 24.7547 185.572 24.6773 186.094 24.608C186.617 24.5387 187.105 24.472 187.558 24.408L187.046 24.704C187.062 23.936 186.908 23.368 186.582 23C186.262 22.632 185.708 22.448 184.918 22.448C184.396 22.448 183.937 22.568 183.542 22.808C183.153 23.0427 182.878 23.4267 182.718 23.96L181.366 23.552C181.574 22.7947 181.977 22.2 182.574 21.768C183.172 21.336 183.958 21.12 184.934 21.12C185.718 21.12 186.39 21.2613 186.95 21.544C187.516 21.8213 187.921 22.2427 188.166 22.808C188.289 23.0747 188.366 23.3653 188.398 23.68C188.43 23.9893 188.446 24.3147 188.446 24.656V30H187.182V27.928L187.478 28.12C187.153 28.8187 186.697 29.3467 186.11 29.704C185.529 30.0613 184.82 30.24 183.982 30.24ZM184.198 29.048C184.71 29.048 185.153 28.9573 185.526 28.776C185.905 28.5893 186.209 28.3467 186.438 28.048C186.668 27.744 186.817 27.4133 186.886 27.056C186.966 26.7893 187.009 26.4933 187.014 26.168C187.025 25.8373 187.03 25.584 187.03 25.408L187.526 25.624C187.062 25.688 186.606 25.7493 186.158 25.808C185.71 25.8667 185.286 25.9307 184.886 26C184.486 26.064 184.126 26.1413 183.806 26.232C183.572 26.3067 183.35 26.4027 183.142 26.52C182.94 26.6373 182.774 26.7893 182.646 26.976C182.524 27.1573 182.462 27.384 182.462 27.656C182.462 27.8907 182.521 28.1147 182.638 28.328C182.761 28.5413 182.948 28.7147 183.198 28.848C183.454 28.9813 183.788 29.048 184.198 29.048ZM194.038 30.248C193.222 30.2427 192.526 30.0667 191.95 29.72C191.374 29.368 190.926 28.8533 190.606 28.176C190.286 27.4987 190.108 26.6693 190.07 25.688C190.049 25.2347 190.054 24.736 190.086 24.192C190.124 23.648 190.182 23.1253 190.262 22.624C190.348 22.1227 190.454 21.7093 190.582 21.384C190.726 20.9947 190.929 20.6347 191.19 20.304C191.457 19.968 191.756 19.6907 192.086 19.472C192.422 19.2427 192.798 19.064 193.214 18.936C193.63 18.808 194.065 18.7093 194.518 18.64C194.977 18.5653 195.436 18.5013 195.894 18.448C196.353 18.3893 196.79 18.32 197.206 18.24L197.35 19.52C197.057 19.584 196.71 19.64 196.31 19.688C195.91 19.7307 195.494 19.7813 195.062 19.84C194.636 19.8987 194.225 19.9813 193.83 20.088C193.441 20.1893 193.105 20.3307 192.822 20.512C192.406 20.7627 192.086 21.1387 191.862 21.64C191.644 22.136 191.51 22.6933 191.462 23.312C191.793 22.8 192.222 22.424 192.75 22.184C193.278 21.944 193.841 21.824 194.438 21.824C195.212 21.824 195.878 22.0053 196.438 22.368C196.998 22.7253 197.428 23.2187 197.726 23.848C198.03 24.4773 198.182 25.1947 198.182 26C198.182 26.8533 198.012 27.6 197.67 28.24C197.329 28.88 196.846 29.376 196.222 29.728C195.604 30.08 194.876 30.2533 194.038 30.248ZM194.126 28.896C194.964 28.896 195.598 28.6373 196.03 28.12C196.462 27.5973 196.678 26.904 196.678 26.04C196.678 25.1547 196.454 24.4587 196.006 23.952C195.558 23.44 194.929 23.184 194.118 23.184C193.297 23.184 192.668 23.44 192.23 23.952C191.798 24.4587 191.582 25.1547 191.582 26.04C191.582 26.9307 191.801 27.6293 192.238 28.136C192.676 28.6427 193.305 28.896 194.126 28.896Z" fill="#0A0A0A"/>
<line x1="56.5" y1="18" x2="56.5" y2="30" stroke="#0A0A0A" stroke-opacity="0.2"/>
<path d="M40.4198 24.3699C41.2898 24.7199 41.8297 25.7499 41.6297 26.6599L41.2197 28.5199C40.5097 31.7199 37.9997 33.9999 34.3797 33.9999H29.6197C25.9997 33.9999 23.4897 31.7199 22.7797 28.5199L22.3697 26.6599C22.1697 25.7499 22.7097 24.7199 23.5797 24.3699L24.9997 23.7999L30.5098 21.5899C31.4698 21.2099 32.5297 21.2099 33.4897 21.5899L38.9997 23.7999L40.4198 24.3699Z" stroke="#0A0A0A" stroke-width="1.5" stroke-linecap="round" stroke-linejoin="round"/>
<path d="M32 34V22" stroke="#0A0A0A" stroke-width="1.5" stroke-linecap="round" stroke-linejoin="round"/>
<path d="M39 20V23.8L33.49 21.59C32.53 21.21 31.47 21.21 30.51 21.59L25 23.8V20C25 18.35 26.35 17 28 17H36C37.65 17 39 18.35 39 20Z" stroke="#0A0A0A" stroke-width="1.5" stroke-linecap="round" stroke-linejoin="round"/>
<path d="M34.5 17H29.5V15C29.5 14.45 29.95 14 30.5 14H33.5C34.05 14 34.5 14.45 34.5 15V17Z" stroke="#0A0A0A" stroke-width="1.5" stroke-linecap="round" stroke-linejoin="round"/>
</g>
<defs>
<filter id="filter0_d_103_2716" x="0" y="0" width="219" height="56" filterUnits="userSpaceOnUse" color-interpolation-filters="sRGB">
<feFlood flood-opacity="0" result="BackgroundImageFix"/>
<feColorMatrix in="SourceAlpha" type="matrix" values="0 0 0 0 0 0 0 0 0 0 0 0 0 0 0 0 0 0 127 0" result="hardAlpha"/>
<feOffset dy="4"/>
<feGaussianBlur stdDeviation="2"/>
<feComposite in2="hardAlpha" operator="out"/>
<feColorMatrix type="matrix" values="0 0 0 0 0 0 0 0 0 0 0 0 0 0 0 0 0 0 0.25 0"/>
<feBlend mode="normal" in2="BackgroundImageFix" result="effect1_dropShadow_103_2716"/>
<feBlend mode="normal" in="SourceGraphic" in2="effect1_dropShadow_103_2716" result="shape"/>
</filter>
</defs>
</svg>
