<svg width="64" height="64" viewBox="0 0 64 64" fill="none" xmlns="http://www.w3.org/2000/svg">
<path d="M52.7731 39.8135C47.2797 45.2802 39.4131 46.9602 32.5064 44.8002L19.9464 57.3335C19.0397 58.2669 17.2531 58.8269 15.9731 58.6402L10.1597 57.8402C8.23974 57.5735 6.45307 55.7602 6.15974 53.8402L5.35974 48.0269C5.17307 46.7469 5.78641 44.9602 6.66641 44.0535L19.1997 31.5202C17.0664 24.5868 18.7197 16.7202 24.2131 11.2535C32.0797 3.38685 44.8531 3.38685 52.7464 11.2535C60.6397 19.1202 60.6397 31.9469 52.7731 39.8135Z" stroke="#0A0A0A" stroke-width="2" stroke-miterlimit="10" stroke-linecap="round" stroke-linejoin="round"/>
<path d="M18.373 46.6401L24.5064 52.7735" stroke="#0A0A0A" stroke-width="2" stroke-miterlimit="10" stroke-linecap="round" stroke-linejoin="round"/>
<path d="M38.6665 29.3335C40.8756 29.3335 42.6665 27.5426 42.6665 25.3335C42.6665 23.1244 40.8756 21.3335 38.6665 21.3335C36.4574 21.3335 34.6665 23.1244 34.6665 25.3335C34.6665 27.5426 36.4574 29.3335 38.6665 29.3335Z" stroke="#0A0A0A" stroke-width="2" stroke-linecap="round" stroke-linejoin="round"/>
</svg>
