<svg width="64" height="64" viewBox="0 0 64 64" fill="none" xmlns="http://www.w3.org/2000/svg">
<path d="M14.5868 24.0002C19.7414 24.0002 23.9201 19.8215 23.9201 14.6668C23.9201 9.51217 19.7414 5.3335 14.5868 5.3335C9.43209 5.3335 5.25342 9.51217 5.25342 14.6668C5.25342 19.8215 9.43209 24.0002 14.5868 24.0002Z" stroke="#0A0A0A" stroke-width="2"/>
<path d="M45.2533 40H53.2533C56.1866 40 58.5866 42.4 58.5866 45.3333V53.3333C58.5866 56.2667 56.1866 58.6667 53.2533 58.6667H45.2533C42.3199 58.6667 39.9199 56.2667 39.9199 53.3333V45.3333C39.9199 42.4 42.3199 40 45.2533 40Z" stroke="#0A0A0A" stroke-width="2"/>
<path d="M32 13.3335H39.1467C44.08 13.3335 46.3733 19.4402 42.6667 22.6935L21.36 41.3335C17.6533 44.5602 19.9467 50.6668 24.8533 50.6668H32" stroke="#0A0A0A" stroke-width="2" stroke-linecap="round" stroke-linejoin="round"/>
<path d="M14.6299 14.6668H14.6607" stroke="#0A0A0A" stroke-width="2" stroke-linecap="round" stroke-linejoin="round"/>
<path d="M49.2964 49.3333H49.3272" stroke="#0A0A0A" stroke-width="2" stroke-linecap="round" stroke-linejoin="round"/>
</svg>
