<svg width="64" height="64" viewBox="0 0 64 64" fill="none" xmlns="http://www.w3.org/2000/svg">
<path d="M8.02661 29.9199V41.8933C8.02661 53.8666 12.8266 58.6666 24.7999 58.6666H39.1733C51.1466 58.6666 55.9466 53.8666 55.9466 41.8933V29.9199" stroke="#0A0A0A" stroke-width="2" stroke-linecap="round" stroke-linejoin="round"/>
<path d="M32 32.0002C36.88 32.0002 40.48 28.0268 40 23.1468L38.24 5.3335H25.7866L24 23.1468C23.52 28.0268 27.12 32.0002 32 32.0002Z" stroke="#0A0A0A" stroke-width="2" stroke-linecap="round" stroke-linejoin="round"/>
<path d="M48.8266 32.0002C54.2133 32.0002 58.16 27.6268 57.6266 22.2668L56.88 14.9335C55.92 8.00016 53.2533 5.3335 46.2666 5.3335H38.1333L40 24.0268C40.4533 28.4268 44.4266 32.0002 48.8266 32.0002Z" stroke="#0A0A0A" stroke-width="2" stroke-linecap="round" stroke-linejoin="round"/>
<path d="M15.0399 32.0002C19.4399 32.0002 23.4133 28.4268 23.8399 24.0268L24.4266 18.1335L25.7066 5.3335H17.5733C10.5866 5.3335 7.91993 8.00016 6.95993 14.9335L6.23993 22.2668C5.7066 27.6268 9.65326 32.0002 15.0399 32.0002Z" stroke="#0A0A0A" stroke-width="2" stroke-linecap="round" stroke-linejoin="round"/>
<path d="M31.9999 45.3335C27.5466 45.3335 25.3333 47.5468 25.3333 52.0002V58.6668H38.6666V52.0002C38.6666 47.5468 36.4533 45.3335 31.9999 45.3335Z" stroke="#0A0A0A" stroke-width="2" stroke-linecap="round" stroke-linejoin="round"/>
</svg>
