<svg width="64" height="64" viewBox="0 0 64 64" fill="none" xmlns="http://www.w3.org/2000/svg">
<path d="M5.33325 58.6665H58.6666" stroke="#0A0A0A" stroke-width="2" stroke-miterlimit="10" stroke-linecap="round" stroke-linejoin="round"/>
<path d="M40.0267 58.6401L8.02669 58.6935L8 18.8535C8 17.0668 8.90671 15.4134 10.3734 14.4267L21.04 7.30674C22.8267 6.10674 25.1733 6.10674 26.96 7.30674L37.6266 14.4267C39.12 15.4134 40 17.0668 40 18.8535L40.0267 58.6401Z" stroke="#0A0A0A" stroke-width="2" stroke-miterlimit="10" stroke-linecap="round" stroke-linejoin="round"/>
<path d="M53.28 58.6934V48" stroke="#0A0A0A" stroke-width="2" stroke-miterlimit="10" stroke-linecap="round" stroke-linejoin="round"/>
<path d="M53.3333 32C50.4 32 48 34.4 48 37.3333V42.6667C48 45.6 50.4 48 53.3333 48C56.2667 48 58.6667 45.6 58.6667 42.6667V37.3333C58.6667 34.4 56.2667 32 53.3333 32Z" stroke="#0A0A0A" stroke-width="2" stroke-miterlimit="10" stroke-linecap="round" stroke-linejoin="round"/>
<path d="M8 37.3335H40" stroke="#0A0A0A" stroke-width="2" stroke-miterlimit="10" stroke-linecap="round" stroke-linejoin="round"/>
<path d="M24 58.6665V48.6665" stroke="#0A0A0A" stroke-width="2" stroke-miterlimit="10" stroke-linecap="round" stroke-linejoin="round"/>
<path d="M24 28C26.2091 28 28 26.2091 28 24C28 21.7909 26.2091 20 24 20C21.7909 20 20 21.7909 20 24C20 26.2091 21.7909 28 24 28Z" stroke="#0A0A0A" stroke-width="2" stroke-miterlimit="10" stroke-linecap="round" stroke-linejoin="round"/>
</svg>
