<svg width="64" height="64" viewBox="0 0 64 64" fill="none" xmlns="http://www.w3.org/2000/svg">
<path d="M31.9987 45.3333V51.68C31.9987 56.6667 29.9987 58.6667 24.9854 58.6667H12.3187C7.33203 58.6667 5.33203 56.6667 5.33203 51.68V39.0133C5.33203 34 7.33203 32 12.3187 32H18.6654V38.32C18.6654 43.3333 20.6654 45.3333 25.652 45.3333H31.9987Z" stroke="#0A0A0A" stroke-width="2" stroke-linecap="round" stroke-linejoin="round"/>
<path d="M45.3346 32.0003V38.3203C45.3346 43.3337 43.3346 45.3337 38.3213 45.3337H25.6546C20.668 45.3337 18.668 43.3337 18.668 38.3203V25.6537C18.668 20.667 20.668 18.667 25.6546 18.667H32.0013V24.987C32.0013 30.0003 34.0013 32.0003 38.988 32.0003H45.3346Z" stroke="#0A0A0A" stroke-width="2" stroke-linecap="round" stroke-linejoin="round"/>
<path d="M58.6667 12.3202V24.9868C58.6667 30.0002 56.6667 32.0002 51.6533 32.0002H38.9867C34 32.0002 32 30.0002 32 24.9868V12.3202C32 7.3335 34 5.3335 38.9867 5.3335H51.6533C56.6667 5.3335 58.6667 7.3335 58.6667 12.3202Z" stroke="#0A0A0A" stroke-width="2" stroke-linecap="round" stroke-linejoin="round"/>
</svg>
