<svg width="64" height="64" viewBox="0 0 64 64" fill="none" xmlns="http://www.w3.org/2000/svg">
<path d="M6.10547 20.7469V46.6936C6.10547 51.7603 9.70547 53.8403 14.0788 51.3336L20.3455 47.7603C21.7055 46.9869 23.9721 46.9069 25.3855 47.6269L39.3855 54.6403C40.7988 55.3336 43.0655 55.2803 44.4255 54.5069L55.9721 47.8936C57.4388 47.0403 58.6655 44.9603 58.6655 43.2536V17.3069C58.6655 12.2403 55.0655 10.1603 50.6921 12.6669L44.4255 16.2403C43.0655 17.0136 40.7988 17.0936 39.3855 16.3736L25.3855 9.38693C23.9721 8.69359 21.7055 8.74693 20.3455 9.52026L8.7988 16.1336C7.30547 16.9869 6.10547 19.0669 6.10547 20.7469Z" stroke="#0A0A0A" stroke-width="2" stroke-linecap="round" stroke-linejoin="round"/>
<path d="M22.8281 12.667V43.3337" stroke="#0A0A0A" stroke-width="2" stroke-linecap="round" stroke-linejoin="round"/>
<path d="M41.9453 17.6533V53.3333" stroke="#0A0A0A" stroke-width="2" stroke-linecap="round" stroke-linejoin="round"/>
</svg>
