<svg width="64" height="64" viewBox="0 0 64 64" fill="none" xmlns="http://www.w3.org/2000/svg">
<path d="M29.9375 2.06638C31.2328 1.39743 32.7719 1.39743 34.0672 2.06638L46.8023 8.6433L59.1157 15.2402C60.5655 16.017 61.476 17.5228 61.4904 19.1675L61.6023 32L61.4904 44.8325C61.476 46.4772 60.5655 47.983 59.1157 48.7598L46.8023 55.3567L34.0672 61.9336C32.7719 62.6026 31.2328 62.6026 29.9375 61.9336L17.2023 55.3567L4.88901 48.7598C3.43919 47.983 2.52865 46.4772 2.5143 44.8325L2.40234 32L2.5143 19.1675C2.52865 17.5228 3.43919 16.017 4.88901 15.2402L17.2023 8.6433L29.9375 2.06638Z" stroke="#0A0A0A" stroke-width="2"/>
<path d="M32.3438 58.3994V32.3994M32.3438 32.3994L56.3438 20.3994M32.3438 32.3994L6.34375 20.3994" stroke="#0A0A0A" stroke-width="2" stroke-linecap="round" stroke-linejoin="round"/>
</svg>
